<svg width="16" height="17" viewBox="0 0 16 17" fill="none" xmlns="http://www.w3.org/2000/svg">
<g id="outlined/action/info" clip-path="url(#clip0_3769_6684)">
<path id="Vector" d="M7.33301 5.16732H8.66634V6.50065H7.33301V5.16732ZM7.33301 7.83398H8.66634V11.834H7.33301V7.83398ZM7.99967 1.83398C4.31967 1.83398 1.33301 4.82065 1.33301 8.50065C1.33301 12.1807 4.31967 15.1673 7.99967 15.1673C11.6797 15.1673 14.6663 12.1807 14.6663 8.50065C14.6663 4.82065 11.6797 1.83398 7.99967 1.83398ZM7.99967 13.834C5.05967 13.834 2.66634 11.4407 2.66634 8.50065C2.66634 5.56065 5.05967 3.16732 7.99967 3.16732C10.9397 3.16732 13.333 5.56065 13.333 8.50065C13.333 11.4407 10.9397 13.834 7.99967 13.834Z" fill="black" fill-opacity="0.54"/>
</g>
<defs>
<clipPath id="clip0_3769_6684">
<rect width="16" height="16" fill="white" transform="translate(0 0.5)"/>
</clipPath>
</defs>
</svg>
