<svg width="16" height="16" viewBox="0 0 16 16" fill="none" xmlns="http://www.w3.org/2000/svg">
<g clip-path="url(#clip0_2889_18626)">
<path d="M13.3333 1.33333H2.66659C1.99992 1.33333 1.33325 1.93333 1.33325 2.66666V4.67333C1.33325 5.15333 1.61992 5.56666 1.99992 5.79999V13.3333C1.99992 14.0667 2.73325 14.6667 3.33325 14.6667H12.6666C13.2666 14.6667 13.9999 14.0667 13.9999 13.3333V5.79999C14.3799 5.56666 14.6666 5.15333 14.6666 4.67333V2.66666C14.6666 1.93333 13.9999 1.33333 13.3333 1.33333ZM9.33325 9.33333H6.66659C6.29992 9.33333 5.99992 9.03333 5.99992 8.66666C5.99992 8.29999 6.29992 8 6.66659 8H9.33325C9.69992 8 9.99992 8.29999 9.99992 8.66666C9.99992 9.03333 9.69992 9.33333 9.33325 9.33333ZM13.3333 4.66666H2.66659V2.66666H13.3333V4.66666Z" fill="#4CAF50"/>
</g>
<defs>
<clipPath id="clip0_2889_18626">
<rect width="16" height="16" fill="white"/>
</clipPath>
</defs>
</svg>
