<svg width="25" height="25" viewBox="0 0 25 25" fill="none" xmlns="http://www.w3.org/2000/svg">
<g clip-path="url(#clip0_2598_6122)">
<path d="M22.2708 3.61328H7.27075C6.58075 3.61328 6.04075 3.96328 5.68075 4.49328L0.270752 12.6133L5.68075 20.7233C6.04075 21.2533 6.58075 21.6133 7.27075 21.6133H22.2708C23.3708 21.6133 24.2708 20.7133 24.2708 19.6133V5.61328C24.2708 4.51328 23.3708 3.61328 22.2708 3.61328ZM19.2708 16.2033L17.8608 17.6133L14.2708 14.0233L10.6808 17.6133L9.27075 16.2033L12.8608 12.6133L9.27075 9.02328L10.6808 7.61328L14.2708 11.2033L17.8608 7.61328L19.2708 9.02328L15.6808 12.6133L19.2708 16.2033Z" fill="#F6685E"/>
</g>
<defs>
<clipPath id="clip0_2598_6122">
<rect width="24" height="24" fill="white" transform="translate(0.270752 0.613281)"/>
</clipPath>
</defs>
</svg>
