<svg width="16" height="16" viewBox="0 0 16 16" fill="none" xmlns="http://www.w3.org/2000/svg">
<g id="double_arrow_black_24dp 1">
<g id="Group">
<g id="Group_2">
<path id="Vector" d="M7.61325 2.6133L3.84659 5.30663C3.52659 5.5333 3.33325 5.89996 3.33325 6.2933C3.33325 7.28663 4.45325 7.85996 5.25992 7.28663L7.99992 5.3333L10.7399 7.28663C11.5466 7.86663 12.6666 7.28663 12.6666 6.2933C12.6666 5.89996 12.4733 5.52663 12.1533 5.29996L8.38659 2.60663C8.15325 2.44663 7.84659 2.44663 7.61325 2.6133Z" fill="#76767B"/>
<path id="Vector_2" d="M7.61325 7.27997L3.84659 9.96664C3.52659 10.2 3.33325 10.5666 3.33325 10.96C3.33325 11.9533 4.45325 12.5333 5.25992 11.9533L7.99992 9.99997L10.7399 11.9533C11.5466 12.5333 12.6666 11.9533 12.6666 10.96C12.6666 10.5666 12.4733 10.1933 12.1533 9.96664L8.38659 7.2733C8.15325 7.1133 7.84659 7.1133 7.61325 7.27997Z" fill="#76767B"/>
</g>
</g>
</g>
</svg>
