<svg width="8" height="13" viewBox="0 0 8 13" fill="none" xmlns="http://www.w3.org/2000/svg">
<path id="&#244;&#128;&#133;&#174;" d="M1.15385 12.8078C0.77208 12.8078 0.484331 12.7536 0.290598 12.6454C0.0968661 12.5314 0 12.3605 0 12.1326C0 11.9559 0.0512821 11.8135 0.153846 11.7052C0.25641 11.5969 0.407407 11.5314 0.606838 11.5086C0.646724 11.5029 0.692308 11.5001 0.74359 11.5001C0.80057 11.4944 0.860399 11.4915 0.923077 11.4915C1.37892 11.4915 1.71225 11.3776 1.92308 11.1496C2.1396 10.916 2.30769 10.52 2.42735 9.96161L3.36752 5.49153H2.40171C2.20228 5.49153 2.04558 5.4374 1.93162 5.32913C1.81766 5.22087 1.76068 5.07557 1.76068 4.89324C1.76068 4.67671 1.83476 4.50862 1.98291 4.38896C2.13105 4.26361 2.33048 4.20093 2.5812 4.20093H3.64103L3.92308 2.83341C4.11681 1.92173 4.4359 1.25506 4.88034 0.833408C5.33048 0.406058 5.96296 0.192383 6.77778 0.192383C7.18803 0.192383 7.49288 0.249363 7.69231 0.363323C7.89744 0.471585 8 0.645374 8 0.884691C8 1.24936 7.79487 1.45164 7.38462 1.49153C7.33333 1.49723 7.27635 1.50292 7.21368 1.50862C7.151 1.50862 7.08262 1.50862 7.00855 1.50862C6.53561 1.50862 6.19373 1.62828 5.98291 1.8676C5.77208 2.10691 5.60969 2.49723 5.49573 3.03854L5.25641 4.20093H6.7094C6.90883 4.20093 7.06268 4.25506 7.17094 4.36332C7.2849 4.46589 7.34188 4.61119 7.34188 4.79922C7.34188 5.01005 7.26781 5.17814 7.11966 5.30349C6.97721 5.42885 6.78063 5.49153 6.52991 5.49153H4.98291L4.00855 10.1667C3.80342 11.1297 3.48433 11.8106 3.05128 12.2095C2.62393 12.6083 1.99145 12.8078 1.15385 12.8078Z" fill="#2A3EB1"/>
</svg>
