<svg width="8" height="21" viewBox="0 0 8 21" fill="none" xmlns="http://www.w3.org/2000/svg">
<path id="&#244;&#128;&#184;&#143;" d="M2.9721 20.903C2.77335 20.868 2.604 20.7786 2.46406 20.6349C2.33053 20.4924 2.19719 20.2739 2.06402 19.9793C1.57699 18.9547 1.20592 17.891 0.950824 16.7883C0.703267 15.6803 0.563382 14.5616 0.531168 13.432C0.506495 12.2972 0.590819 11.1817 0.784138 10.0853C0.978588 8.9825 1.28034 7.90856 1.68939 6.86345C2.10598 5.81306 2.6195 4.81282 3.22996 3.86273C3.84795 2.90735 4.56157 2.02833 5.37079 1.22566C5.58799 1.00614 5.78371 0.85224 5.95793 0.763966C6.1397 0.67041 6.32996 0.641155 6.52872 0.676202C6.72106 0.710117 6.87118 0.796084 6.97906 0.934102C7.09335 1.07325 7.1358 1.22617 7.10641 1.39287C7.08719 1.50187 7.05307 1.60163 7.00405 1.69215C6.95504 1.78267 6.88076 1.88526 6.78121 1.99992C6.10586 2.79314 5.50539 3.64914 4.97979 4.56792C4.45419 5.4867 4.01118 6.44319 3.65078 7.43737C3.29678 8.43269 3.03047 9.43686 2.85185 10.4499C2.6721 11.4693 2.58097 12.511 2.57848 13.5749C2.57712 14.6324 2.66627 15.6827 2.84594 16.7258C3.0256 17.769 3.29709 18.7787 3.66041 19.7551C3.71474 19.8969 3.74945 20.0187 3.76455 20.1205C3.77965 20.2223 3.77816 20.3245 3.76007 20.4271C3.73068 20.5938 3.63848 20.723 3.48349 20.8147C3.33491 20.9075 3.16445 20.9369 2.9721 20.903Z" fill="#757575"/>
</svg>
