<svg width="7" height="21" viewBox="0 0 7 21" fill="none" xmlns="http://www.w3.org/2000/svg">
<path id="&#244;&#128;&#184;&#143;" d="M0.903703 20.323C0.711358 20.2891 0.558039 20.2026 0.443747 20.0634C0.335866 19.9254 0.296623 19.7731 0.326016 19.6064C0.344105 19.5038 0.377657 19.4072 0.426672 19.3167C0.475687 19.2262 0.549969 19.1236 0.649518 19.0089C1.31845 18.2146 1.91572 17.358 2.44132 16.4392C2.97334 15.5216 3.41955 14.5657 3.77995 13.5715C4.14149 12.5709 4.41213 11.5609 4.59189 10.5414C4.77051 9.52843 4.8605 8.49317 4.86186 7.43568C4.86963 6.37931 4.78048 5.32899 4.59441 4.28472C4.41475 3.24158 4.14325 2.23183 3.77993 1.25547C3.73202 1.11481 3.70051 0.993562 3.68541 0.891737C3.67031 0.789911 3.67237 0.684501 3.69159 0.575505C3.72098 0.408806 3.80997 0.279058 3.95855 0.186261C4.11354 0.094595 4.28721 0.0657198 4.47955 0.0996354C4.67831 0.134682 4.84389 0.22668 4.97628 0.375632C5.11622 0.519302 5.2507 0.731423 5.37972 1.012C5.86562 2.04302 6.23235 3.11254 6.4799 4.22054C6.735 5.32325 6.87545 6.43881 6.90125 7.5672C6.9346 8.69032 6.85405 9.80326 6.6596 10.906C6.46628 12.0024 6.16076 13.079 5.74304 14.1358C5.33286 15.1873 4.81877 16.1908 4.20077 17.1461C3.59032 18.0962 2.88104 18.9694 2.07294 19.7657C1.84707 19.9969 1.64381 20.1561 1.46318 20.2432C1.28895 20.3315 1.10246 20.3581 0.903703 20.323Z" fill="#757575"/>
</svg>
