<svg width="40" height="40" viewBox="0 0 40 40" fill="none" xmlns="http://www.w3.org/2000/svg">
<rect width="40" height="40" rx="4" fill="#E0F0FF"/>
<path d="M28.5369 29.17V11.2727C28.5369 10.0175 27.5194 9 26.2642 9H17.2626C16.6599 9 16.0818 9.23944 15.6556 9.66565L12.7256 12.5956C12.2994 13.0218 12.06 13.5999 12.06 14.2026V29.17C12.06 30.4252 13.0775 31.4427 14.3326 31.4427H26.2642C27.5194 31.4427 28.5369 30.4252 28.5369 29.17Z" stroke="#00A3FF" stroke-width="1.5"/>
<path d="M16.498 14.9984C17.238 15.003 17.7849 14.3102 17.6086 13.5915L16.5369 9.22131L11.2077 14.9659L16.498 14.9984Z" fill="#00A3FF"/>
<path d="M20.2904 18.445C20.4984 18.445 20.694 18.4052 20.8772 18.3255C21.0613 18.2459 21.2236 18.1359 21.364 17.9955C21.5043 17.8552 21.6143 17.6934 21.694 17.5102C21.7736 17.3261 21.8134 17.13 21.8134 16.9219C21.8134 16.7139 21.7736 16.5182 21.694 16.3351C21.6143 16.1509 21.5043 15.9887 21.364 15.8483C21.2236 15.7079 21.0613 15.5979 20.8772 15.5183C20.693 15.4387 20.4969 15.3988 20.2889 15.3988C20.0808 15.3988 19.8847 15.4387 19.7005 15.5183C19.5174 15.5979 19.3556 15.7079 19.2152 15.8483C19.0759 15.9887 18.9664 16.1509 18.8867 16.3351C18.8071 16.5182 18.7673 16.7139 18.7673 16.9219C18.7673 17.13 18.8071 17.3261 18.8867 17.5102C18.9664 17.6934 19.0764 17.8552 19.2167 17.9955C19.3571 18.1359 19.5189 18.2459 19.702 18.3255C19.8862 18.4052 20.0823 18.445 20.2904 18.445ZM20.1231 17.6506C20.0972 17.6506 20.0738 17.6451 20.0529 17.6342C20.032 17.6232 20.0116 17.6048 19.9917 17.5789L19.6169 17.119C19.606 17.1041 19.597 17.0886 19.59 17.0727C19.5841 17.0558 19.5811 17.0389 19.5811 17.022C19.5811 16.9881 19.5925 16.9592 19.6154 16.9353C19.6383 16.9105 19.6667 16.898 19.7005 16.898C19.7224 16.898 19.7418 16.9025 19.7588 16.9115C19.7767 16.9204 19.7951 16.9373 19.814 16.9622L20.1171 17.3534L20.7547 16.3291C20.7826 16.2833 20.8185 16.2604 20.8623 16.2604C20.8941 16.2604 20.923 16.2709 20.9489 16.2918C20.9747 16.3117 20.9877 16.3391 20.9877 16.3739C20.9877 16.3908 20.9837 16.4077 20.9757 16.4247C20.9678 16.4416 20.9593 16.4575 20.9503 16.4725L20.2485 17.5789C20.2326 17.6028 20.2142 17.6207 20.1933 17.6327C20.1724 17.6446 20.149 17.6506 20.1231 17.6506Z" fill="#00A3FF"/>
<path d="M20.5 19L20.5 24.0968" stroke="#00A3FF" stroke-width="0.5"/>
<path d="M20.5 25L19.5 24L21.5 24L20.5 25Z" fill="#00A3FF"/>
<path d="M15.75 25L14.5 24L17 24L15.75 25Z" fill="#00A3FF"/>
<path d="M25.25 25L24 24L26.5 24L25.25 25Z" fill="#00A3FF"/>
<path fill-rule="evenodd" clip-rule="evenodd" d="M15.5 21H16H25H25.5H25.5V21.5H25.5V24H25V21.5L16 21.5V24H15.5V21.5V21Z" fill="#00A3FF"/>
<circle cx="15.8591" cy="26.8591" r="1.14678" stroke="#00A3FF" stroke-width="0.424734"/>
<circle cx="20.4558" cy="26.8591" r="1.14678" stroke="#00A3FF" stroke-width="0.424734"/>
<circle cx="25.2129" cy="26.8591" r="1.14678" stroke="#00A3FF" stroke-width="0.424734"/>
</svg>
