<svg width="44" height="44" viewBox="0 0 44 44" fill="none" xmlns="http://www.w3.org/2000/svg">
<rect width="44" height="44" rx="4" fill="#3D5AFE" fill-opacity="0.08"/>
<path d="M22.7598 32.3008L32.2812 22.7598C32.5286 22.5124 32.7044 22.291 32.8086 22.0957C32.9193 21.8939 32.9876 21.679 33.0137 21.4512C33.0462 21.2168 33.0625 20.9271 33.0625 20.582V16.8711C33.0625 16.526 33.0299 16.2461 32.9648 16.0312C32.9062 15.8099 32.8053 15.6081 32.6621 15.4258C32.5189 15.237 32.3236 15.0189 32.0762 14.7715L29.8301 12.5254C29.5827 12.2845 29.3678 12.0924 29.1855 11.9492C29.0033 11.7995 28.8014 11.6953 28.5801 11.6367C28.3652 11.5716 28.0853 11.5391 27.7402 11.5391H24.0195C23.681 11.5391 23.3945 11.5553 23.1602 11.5879C22.9258 11.6139 22.7077 11.6823 22.5059 11.793C22.3105 11.9036 22.0924 12.0794 21.8516 12.3203L12.3008 21.8516C11.6042 22.5482 11.2526 23.2546 11.2461 23.9707C11.2396 24.6868 11.5944 25.403 12.3105 26.1191L18.4922 32.291C19.2083 33.0007 19.9245 33.3522 20.6406 33.3457C21.3568 33.3457 22.0632 32.9974 22.7598 32.3008ZM21.7051 31.1191C20.9889 31.8418 20.2695 31.8385 19.5469 31.1094L13.4824 25.0547C13.1243 24.6966 12.9453 24.3353 12.9453 23.9707C12.9518 23.5996 13.1276 23.2415 13.4727 22.8965L22.9551 13.4336C23.0527 13.3359 23.1569 13.2578 23.2676 13.1992C23.3848 13.1406 23.5247 13.1113 23.6875 13.1113H27.7988C28.0658 13.1113 28.3034 13.2188 28.5117 13.4336L31.1777 16.0898C31.3861 16.2982 31.4902 16.5358 31.4902 16.8027V20.9238C31.4902 21.0866 31.4609 21.2233 31.4023 21.334C31.3503 21.4447 31.2754 21.5488 31.1777 21.6465L21.7051 31.1191ZM26.5977 19.3516C26.9818 19.3516 27.3008 19.2214 27.5547 18.9609C27.8086 18.7005 27.9355 18.3848 27.9355 18.0137C27.9355 17.6361 27.8086 17.3203 27.5547 17.0664C27.3008 16.806 26.9818 16.6758 26.5977 16.6758C26.2135 16.6758 25.8945 16.806 25.6406 17.0664C25.3867 17.3203 25.2598 17.6361 25.2598 18.0137C25.2598 18.3848 25.3867 18.7005 25.6406 18.9609C25.8945 19.2214 26.2135 19.3516 26.5977 19.3516Z" fill="#5E5CE6"/>
</svg>
