<svg width="20" height="20" viewBox="0 0 20 20" fill="none" xmlns="http://www.w3.org/2000/svg">
<path fill-rule="evenodd" clip-rule="evenodd" d="M3.26819 0.0205897C3.00934 0.107073 2.77718 0.324862 2.69703 0.556402C2.6614 0.65929 2.6513 0.970743 2.6513 1.9648C2.6513 3.11808 2.65717 3.2566 2.71207 3.40183C2.82605 3.70327 3.16909 3.93883 3.49405 3.93883C3.76677 3.93883 4.08526 3.72175 4.22032 3.44386C4.28119 3.31854 4.28646 3.221 4.2956 2.04227C4.30174 1.25425 4.2926 0.726542 4.27142 0.646288C4.21168 0.419955 4.06187 0.22 3.87398 0.115853C3.69032 0.0140889 3.41656 -0.0289652 3.26819 0.0205897ZM13.1642 0.0441415C12.954 0.112518 12.7366 0.33303 12.6634 0.552216C12.616 0.694346 12.6082 0.893212 12.6082 1.9648C12.6082 3.38692 12.6156 3.43763 12.8582 3.68524C13.1941 4.02793 13.7278 4.01003 14.0415 3.64552C14.2438 3.4104 14.2427 3.4201 14.2427 1.9648C14.2427 0.509502 14.2438 0.519201 14.0415 0.284088C13.8283 0.0363135 13.4807 -0.0587802 13.1642 0.0441415ZM1.33372 2.19678C0.683968 2.3703 0.198932 2.87697 0.0506626 3.53712C0.00549799 3.73813 -0.00047299 4.59104 2.73565e-05 10.7525C0.000694485 18.4806 -0.0133483 17.9873 0.218746 18.4381C0.420352 18.8295 0.755283 19.1148 1.23205 19.3013L1.41711 19.3737L6.5524 19.3829L11.6877 19.3922L11.4031 19.0936C11.0861 18.7611 10.8204 18.4084 10.6075 18.0378L10.4658 17.7911H6.08321C1.7451 17.7911 1.69997 17.7904 1.63393 17.723C1.56775 17.6555 1.56721 17.6095 1.56721 12.0902V6.52549H8.45531H15.3434V8.08589V9.64629L15.7187 9.6681C16.0401 9.68675 16.237 9.71912 16.8194 9.84897L16.9112 9.86942L16.9109 6.86158C16.9108 4.93902 16.8981 3.77485 16.8759 3.63514C16.7646 2.93504 16.2005 2.33231 15.5188 2.18491C15.3948 2.15809 15.1482 2.1359 14.9708 2.13556L14.6481 2.13498L14.6372 2.77313C14.6268 3.37998 14.6219 3.42048 14.5387 3.59848C14.4048 3.88475 14.2385 4.05656 13.9587 4.19763C13.7383 4.30876 13.6837 4.3222 13.4518 4.32227C13.0793 4.32237 12.8505 4.22602 12.5886 3.95884C12.2794 3.64334 12.2339 3.49461 12.2153 2.73896L12.2005 2.13467L8.44324 2.14335L4.68604 2.15199L4.66936 2.79866C4.65332 3.42078 4.64915 3.45267 4.55948 3.63898C4.50391 3.75443 4.39274 3.90122 4.28416 4.00244C3.64395 4.59952 2.64246 4.34565 2.33548 3.50853C2.27684 3.3486 2.2677 3.2435 2.2677 2.7293V2.13498L1.90912 2.13695C1.68469 2.13818 1.46941 2.16057 1.33372 2.19678ZM14.7967 10.4732C12.7293 10.7401 11.0889 12.3147 10.7187 14.3876C10.6403 14.8265 10.641 15.6562 10.7202 16.0711C10.9104 17.0678 11.334 17.8878 12.0233 18.5932C12.4025 18.9813 12.8138 19.2898 13.2526 19.5153C13.5979 19.6927 14.2121 19.889 14.6263 19.9543C15.1354 20.0345 15.8886 20.0067 16.3775 19.8897C18.1916 19.4552 19.5422 18.0387 19.9361 16.1574C20.0222 15.7462 20.0211 14.6946 19.9342 14.2873C19.8376 13.8348 19.7271 13.5177 19.5123 13.0772C18.8745 11.7692 17.659 10.8248 16.2452 10.5388C15.8763 10.4641 15.1291 10.4303 14.7967 10.4732ZM15.7446 11.666C16.6119 11.7742 17.4422 12.2263 18.0008 12.8946C18.5264 13.5233 18.796 14.2207 18.8355 15.0543C18.8589 15.5456 18.8138 15.9069 18.6749 16.3408C18.2212 17.7582 16.9654 18.7339 15.5058 18.8028C14.4983 18.8504 13.6381 18.5182 12.9027 17.7977C11.9453 16.8596 11.5937 15.5205 11.963 14.219C12.2951 13.0483 13.2507 12.0928 14.4133 11.7685C14.869 11.6415 15.2888 11.6092 15.7446 11.666ZM15.0932 12.3074C14.9345 12.3817 14.8634 12.4576 14.7943 12.6264C14.7512 12.7318 14.7431 12.9562 14.7437 14.0376C14.7444 15.215 14.7497 15.335 14.806 15.4597C14.8773 15.6172 14.9869 15.7291 15.1204 15.7807C15.1799 15.8037 15.6022 15.8168 16.2712 15.8165C17.3058 15.8159 17.3309 15.8143 17.4609 15.7392C17.6971 15.6027 17.8082 15.2775 17.7097 15.0109C17.657 14.8684 17.4804 14.6977 17.3463 14.6597C17.2813 14.6413 16.9316 14.6261 16.5693 14.626L15.9105 14.6258V13.6503V12.6748L15.8276 12.5304C15.6797 12.273 15.3684 12.1785 15.0932 12.3074Z" fill="#3b3b3b"/>
</svg>
