<svg width="14" height="14" viewBox="0 0 14 14" fill="none" xmlns="http://www.w3.org/2000/svg">
<path d="M5.5 11.5V10H6.6625L8.63125 7.75L6.6625 5.5H5.425L4.225 11.95C4.125 12.5125 3.89375 12.9531 3.53125 13.2719C3.16875 13.5906 2.70625 13.75 2.14375 13.75C1.58125 13.75 1.125 13.6 0.775 13.3C0.425 13 0.25 12.6 0.25 12.1C0.25 11.7 0.35625 11.3781 0.56875 11.1344C0.78125 10.8906 1.05 10.7688 1.375 10.7688C1.6875 10.7688 1.95312 10.875 2.17188 11.0875C2.39062 11.3 2.5 11.5563 2.5 11.8563C2.5 11.9188 2.49688 11.975 2.49062 12.025C2.48438 12.075 2.475 12.1313 2.4625 12.1938C2.525 12.1813 2.57812 12.1469 2.62188 12.0906C2.66563 12.0344 2.7 11.9563 2.725 11.8563L3.8875 5.5H1.75V4H4.16875L4.5625 1.8625C4.65 1.3875 4.88438 1 5.26562 0.7C5.64687 0.4 6.1 0.25 6.625 0.25C7.175 0.25 7.625 0.4125 7.975 0.7375C8.325 1.0625 8.5 1.46875 8.5 1.95625C8.5 2.33125 8.39375 2.64062 8.18125 2.88438C7.96875 3.12812 7.7 3.25 7.375 3.25C7.0625 3.25 6.79688 3.14375 6.57812 2.93125C6.35938 2.71875 6.25 2.45625 6.25 2.14375C6.25 2.08125 6.25312 2.025 6.25937 1.975C6.26562 1.925 6.275 1.86875 6.2875 1.80625C6.2125 1.83125 6.15625 1.86875 6.11875 1.91875C6.08125 1.96875 6.05 2.04375 6.025 2.14375L5.70625 4H9.25V5.5H8.65L9.625 6.60625L10.6 5.5H10V4H13.75V5.5H12.5875L10.6187 7.75L12.5875 10H13.75V11.5H10V10H10.6L9.625 8.875L8.65 10H9.25V11.5H5.5Z" fill="#2C4C95"/>
</svg>
