<svg width="44" height="44" viewBox="0 0 44 44" fill="none" xmlns="http://www.w3.org/2000/svg">
<rect width="44" height="44" rx="4" fill="#E0F0FF"/>
<path d="M16.6899 30.9053H25.5054C27.2236 30.9053 28.0786 30.0337 28.0786 28.3071V20.77C28.0786 19.6992 27.9541 19.2344 27.29 18.5537L22.7163 13.897C22.0854 13.2495 21.5625 13.1084 20.6328 13.1084H16.6899C14.98 13.1084 14.1167 13.9883 14.1167 15.7148V28.3071C14.1167 30.042 14.9717 30.9053 16.6899 30.9053ZM16.748 29.5688C15.8931 29.5688 15.4531 29.1123 15.4531 28.2822V15.7397C15.4531 14.918 15.8931 14.4448 16.7563 14.4448H20.4502V19.2676C20.4502 20.3135 20.9731 20.8281 22.0107 20.8281H26.7422V28.2822C26.7422 29.1123 26.3022 29.5688 25.439 29.5688H16.748ZM22.1602 19.5747C21.8281 19.5747 21.7036 19.4419 21.7036 19.1099V14.7021L26.4849 19.5747H22.1602ZM24.1523 23.1191H17.8521C17.5532 23.1191 17.3291 23.3433 17.3291 23.6255C17.3291 23.916 17.5532 24.1401 17.8521 24.1401H24.1523C24.4429 24.1401 24.6587 23.916 24.6587 23.6255C24.6587 23.3433 24.4429 23.1191 24.1523 23.1191ZM24.1523 26.0161H17.8521C17.5532 26.0161 17.3291 26.2485 17.3291 26.5391C17.3291 26.8213 17.5532 27.0371 17.8521 27.0371H24.1523C24.4429 27.0371 24.6587 26.8213 24.6587 26.5391C24.6587 26.2485 24.4429 26.0161 24.1523 26.0161Z" fill="#00A3FF"/>
</svg>
