<svg width="160" height="169" viewBox="0 0 160 169" fill="none" xmlns="http://www.w3.org/2000/svg">
<path d="M152.39 117.702C136.277 155.303 93.7434 171.454 60.4168 168.7C51.3177 167.948 33.0017 166.435 18.7151 152.939C-8.73857 127.013 -4.51048 72.8418 21.7693 40.9458C25.1537 36.8382 48.58 9.31649 85.0845 9.68183C111.812 9.95438 130.572 25.0277 132.852 26.9066C138.685 31.7495 143.733 37.468 147.817 43.8588C161.277 64.8702 162.458 94.205 152.39 117.702Z" fill="url(#paint0_linear)"/>
<path d="M98.3428 20.2879L137.396 0.54248L157.184 21.3709L155.838 21.4215L137.098 1.3708L98.923 20.8887L98.3428 20.2879Z" fill="url(#paint1_linear)"/>
<path d="M150.093 21.5381L150.18 26.0511L149.387 26.0549L149.3 21.542L150.093 21.5381Z" fill="url(#paint2_linear)"/>
<path d="M157.302 25.6331L142.54 25.6953L142.579 26.0842L157.302 26.0219V25.6331Z" fill="url(#paint3_linear)"/>
<path d="M157.302 21.2639L142.728 21.3281L142.571 21.717L157.302 21.6528V21.2639Z" fill="url(#paint4_linear)"/>
<path d="M157.249 21.27H156.828V26.0221H157.249V21.27Z" fill="url(#paint5_linear)"/>
<path d="M142.958 90.1582H131.392V91.5504H142.958V90.1582Z" fill="url(#paint6_linear)"/>
<path d="M142.95 107.242H131.417V108.216H142.95V107.242Z" fill="url(#paint7_linear)"/>
<path d="M142.95 98.6299H131.417V99.604H142.95V98.6299Z" fill="url(#paint8_linear)"/>
<path d="M142.95 115.714H131.417V116.688H142.95V115.714Z" fill="url(#paint9_linear)"/>
<path d="M142.95 124.185H131.417V125.159H142.95V124.185Z" fill="url(#paint10_linear)"/>
<path d="M143.304 91.3782L142.787 90.6101L131.415 98.3468L131.933 99.1148L143.304 91.3782Z" fill="url(#paint11_linear)"/>
<path d="M143.438 108.408L142.92 107.64L131.549 115.377L132.066 116.145L143.438 108.408Z" fill="url(#paint12_linear)"/>
<path d="M143.304 125.439L142.787 124.671L131.415 132.407L131.933 133.175L143.304 125.439Z" fill="url(#paint13_linear)"/>
<path d="M142.346 124.672L142.936 123.959L132.376 115.136L131.786 115.85L142.346 124.672Z" fill="url(#paint14_linear)"/>
<path d="M142.345 107.728L142.935 107.015L132.375 98.1922L131.785 98.9055L142.345 107.728Z" fill="url(#paint15_linear)"/>
<path d="M132.413 90.1582H131.417V125.367H132.413V90.1582Z" fill="url(#paint16_linear)"/>
<path d="M143.577 90.2126H142.581V125.421H143.577V90.2126Z" fill="url(#paint17_linear)"/>
<path d="M142.85 20.0586H131.316V21.0328H142.85V20.0586Z" fill="url(#paint18_linear)"/>
<path d="M142.85 28.6506H131.316V29.6248H142.85V28.6506Z" fill="url(#paint19_linear)"/>
<path d="M142.85 37.1226H131.316V38.0967H142.85V37.1226Z" fill="url(#paint20_linear)"/>
<path d="M142.85 45.3337H131.316V46.3079H142.85V45.3337Z" fill="url(#paint21_linear)"/>
<path d="M142.85 53.8057H131.316V54.7798H142.85V53.8057Z" fill="url(#paint22_linear)"/>
<path d="M143.339 21.3467L142.822 20.5786L131.451 28.3153L131.968 29.0834L143.339 21.3467Z" fill="url(#paint23_linear)"/>
<path d="M143.201 38.377L142.684 37.6089L131.312 45.3456L131.83 46.1137L143.201 38.377Z" fill="url(#paint24_linear)"/>
<path d="M142.068 54.8891L142.658 54.1758L132.098 45.3531L131.508 46.0664L142.068 54.8891Z" fill="url(#paint25_linear)"/>
<path d="M142.244 37.6051L142.834 36.8918L132.274 28.0692L131.685 28.7824L142.244 37.6051Z" fill="url(#paint26_linear)"/>
<path d="M143.202 54.8343L142.685 54.0662L131.313 61.8029L131.831 62.571L143.202 54.8343Z" fill="url(#paint27_linear)"/>
<path d="M132.313 19.9905H131.316V61.6435H132.313V19.9905Z" fill="url(#paint28_linear)"/>
<path d="M143.477 20.0273H142.48V61.6804H143.477V20.0273Z" fill="url(#paint29_linear)"/>
<path d="M84.6178 20.6611L84.7048 27.4335L83.5714 27.4413L83.4844 20.6689L84.6178 20.6611Z" fill="url(#paint30_linear)"/>
<path d="M90.2406 27.3811L90.8634 27.0758L84.4768 20.459L83.856 20.7662L90.2406 27.3811Z" fill="url(#paint31_linear)"/>
<path d="M104.107 27.2099L104.73 26.9027L98.343 20.2878L97.7222 20.5951L104.107 27.2099Z" fill="url(#paint32_linear)"/>
<path d="M117.975 27.1982L118.597 26.891L112.211 20.2742L111.59 20.5814L117.975 27.1982Z" fill="url(#paint33_linear)"/>
<path d="M117.979 26.7394L118.563 27.0816L125.667 20.8517L125.081 20.5095L117.979 26.7394Z" fill="url(#paint34_linear)"/>
<path d="M103.903 26.7299L104.489 27.0721L111.828 20.6439L111.008 20.5L103.903 26.7299Z" fill="url(#paint35_linear)"/>
<path d="M90.1069 26.8212L90.693 27.1634L98.1646 20.6613L97.2111 20.5913L90.1069 26.8212Z" fill="url(#paint36_linear)"/>
<path d="M131.374 27.1088L131.997 26.8016L125.611 20.1868L124.99 20.492L131.374 27.1088Z" fill="url(#paint37_linear)"/>
<path d="M131.225 26.5276L131.233 27.1109L83.5712 27.4259L83.5635 26.8426L131.225 26.5276Z" fill="url(#paint38_linear)"/>
<path d="M131.475 19.9866L131.483 20.5699L83.5307 20.8888L83.5229 20.3055L131.475 19.9866Z" fill="url(#paint39_linear)"/>
<path d="M144.111 61.0854H130.256V62.1937H144.111V61.0854Z" fill="url(#paint40_linear)"/>
<path d="M143.397 70.7373H130.256V71.8456H143.397V70.7373Z" fill="url(#paint41_linear)"/>
<path d="M143.397 80.092H130.256V81.2003H143.397V80.092Z" fill="url(#paint42_linear)"/>
<path d="M143.397 89.7439H130.256V90.8522H143.397V89.7439Z" fill="url(#paint43_linear)"/>
<path d="M143.8 72.1677L143.21 71.2917L130.255 80.1063L130.844 80.9823L143.8 72.1677Z" fill="url(#paint44_linear)"/>
<path d="M131.148 80.1172L130.475 80.9299L141.995 90.5547L143.178 90.1698L131.148 80.1172Z" fill="url(#paint45_linear)"/>
<path d="M142.707 71.2922L143.379 70.4788L132.489 61.3802L131.817 62.1936L142.707 71.2922Z" fill="url(#paint46_linear)"/>
<path d="M131.392 61.0854H130.256V90.827H131.392V61.0854Z" fill="url(#paint47_linear)"/>
<path d="M144.111 61.1125H142.976V90.8542H144.111V61.1125Z" fill="url(#paint48_linear)"/>
<path d="M146.558 67.9238H127.589C127.493 67.9238 127.415 68.0022 127.415 68.0988V68.4722C127.415 68.5688 127.493 68.6471 127.589 68.6471H146.558C146.654 68.6471 146.732 68.5688 146.732 68.4722V68.0988C146.732 68.0022 146.654 67.9238 146.558 67.9238Z" fill="url(#paint49_linear)"/>
<path d="M146.419 76.2693H127.847V76.9926H146.419V76.2693Z" fill="url(#paint50_linear)"/>
<path d="M128.566 67.9238H127.847V76.8603H128.566V67.9238Z" fill="url(#paint51_linear)"/>
<path d="M130.115 67.9238H129.755V76.8603H130.115V67.9238Z" fill="url(#paint52_linear)"/>
<path d="M131.902 67.9238H131.542V76.8603H131.902V67.9238Z" fill="url(#paint53_linear)"/>
<path d="M133.69 67.9238H133.33V76.8603H133.69V67.9238Z" fill="url(#paint54_linear)"/>
<path d="M135.475 67.9238H135.115V76.8603H135.475V67.9238Z" fill="url(#paint55_linear)"/>
<path d="M137.384 67.9238H137.024V76.8603H137.384V67.9238Z" fill="url(#paint56_linear)"/>
<path d="M139.169 67.9238H138.809V76.8603H139.169V67.9238Z" fill="url(#paint57_linear)"/>
<path d="M141.181 67.9238H140.821V76.8603H141.181V67.9238Z" fill="url(#paint58_linear)"/>
<path d="M142.968 67.9238H142.608V76.8603H142.968V67.9238Z" fill="url(#paint59_linear)"/>
<path d="M144.74 67.9238H144.38V76.8603H144.74V67.9238Z" fill="url(#paint60_linear)"/>
<path d="M146.418 67.9238H145.699V76.8603H146.418V67.9238Z" fill="url(#paint61_linear)"/>
<path d="M140.982 14.2186L140.718 13.8257L131.813 19.884L132.078 20.2769L140.982 14.2186Z" fill="url(#paint62_linear)"/>
<path d="M139.961 9.27889L139.697 8.88599L133.507 13.0971L133.772 13.49L139.961 9.27889Z" fill="url(#paint63_linear)"/>
<path d="M139.045 6.22616L138.78 5.83325L135.147 8.30498L135.412 8.69789L139.045 6.22616Z" fill="url(#paint64_linear)"/>
<path d="M142.393 20.205L142.696 19.8418L134.099 12.5764L133.795 12.9396L142.393 20.205Z" fill="url(#paint65_linear)"/>
<path d="M141.192 14.5906L141.526 14.2551L135.56 8.25781L135.226 8.59328L141.192 14.5906Z" fill="url(#paint66_linear)"/>
<path d="M138.682 6.51083L138.992 6.19873L136.71 3.90402L136.399 4.21612L138.682 6.51083Z" fill="url(#paint67_linear)"/>
<path d="M131.316 20.0585L137.396 0.54248L143.477 20.2743H142.241L137.396 3.32687L132.313 19.9904L131.316 20.0585Z" fill="url(#paint68_linear)"/>
<path d="M137.556 2.83883C138.336 2.83883 138.968 2.20334 138.968 1.41942C138.968 0.635494 138.336 0 137.556 0C136.776 0 136.144 0.635494 136.144 1.41942C136.144 2.20334 136.776 2.83883 137.556 2.83883Z" fill="url(#paint69_linear)"/>
<path d="M123.281 16.6323H134.821C135.496 16.6323 136.143 16.9019 136.621 17.3818C137.098 17.8617 137.366 18.5125 137.366 19.1912V31.4681H116.131V23.8208C116.132 21.9148 116.886 20.0872 118.227 18.7395C119.568 17.3917 121.385 16.6339 123.281 16.6323Z" fill="url(#paint70_linear)"/>
<path d="M128.357 31.305L128.496 19.1661C128.498 18.9667 128.54 18.7698 128.619 18.5869C128.698 18.4041 128.813 18.2391 128.957 18.1018C129.101 17.9645 129.27 17.8577 129.456 17.7876C129.642 17.7176 129.84 17.6858 130.038 17.6942L134.68 17.8692C134.997 17.8807 135.297 18.0154 135.518 18.245C135.738 18.4745 135.861 18.781 135.861 19.1V31.305H128.357Z" fill="url(#paint71_linear)"/>
<path d="M134.846 26.5276H129.74V20.0508C129.74 19.8398 129.82 19.6366 129.964 19.483C130.108 19.3293 130.304 19.2368 130.514 19.2244L133.289 19.0552C134.139 19.0027 134.846 19.8796 134.846 20.9763V26.5276Z" fill="url(#paint72_linear)"/>
<path d="M116.131 26.8445H122.684C122.943 26.8446 123.191 26.7428 123.376 26.5611C123.56 26.3793 123.667 26.1321 123.672 25.8723L123.883 16.7219C120.587 17.1283 115.754 19.8544 116.131 26.8445Z" fill="url(#paint73_linear)"/>
<path d="M145.741 76.9927H128.608V80.2379H145.741V76.9927Z" fill="url(#paint74_linear)"/>
<path d="M107.122 27.7544H106.615V45.6624H107.122V27.7544Z" fill="url(#paint75_linear)"/>
<path d="M104.102 27.5736L103.596 27.5757L103.668 45.6624L104.175 45.6603L104.102 27.5736Z" fill="url(#paint76_linear)"/>
<path d="M106.925 48.544L107.548 45.1355C107.576 44.9688 107.567 44.7979 107.523 44.6348C107.479 44.4717 107.4 44.3201 107.292 44.1907C107.184 44.0612 107.049 43.9569 106.897 43.8851C106.745 43.8132 106.579 43.7754 106.41 43.7744H104.863C104.678 43.7758 104.495 43.8153 104.326 43.8904C104.157 43.9655 104.005 44.0746 103.879 44.2111C103.754 44.3476 103.657 44.5084 103.596 44.6838C103.535 44.8592 103.51 45.0453 103.523 45.2308L103.795 48.7307C103.814 48.9596 103.88 49.182 103.991 49.3832C104.101 49.5843 104.253 49.7596 104.436 49.8973C104.996 50.3251 105.79 51.2156 105.964 52.8878C106.087 54.0895 105.577 55.1958 104.511 55.7733C103.931 56.0883 103.144 56.3216 102.48 56.1622C102.111 56.0689 100.795 55.5789 100.707 55.19C99.3893 52.1606 97.8768 55.0267 99.9251 56.7766C100.662 57.3924 101.547 57.8022 102.492 57.9647C106.898 58.6821 111.172 53.9611 107.406 50.1423C107.204 49.9346 107.055 49.6808 106.971 49.4025C106.887 49.1242 106.871 48.8297 106.925 48.544Z" fill="url(#paint77_linear)"/>
<path d="M107.102 44.9574C107.486 44.0258 107.045 42.9578 106.119 42.5719C105.192 42.186 104.13 42.6284 103.746 43.56C103.362 44.4916 103.802 45.5596 104.729 45.9455C105.655 46.3314 106.718 45.889 107.102 44.9574Z" fill="url(#paint78_linear)"/>
<path d="M104.346 44.2586C104.346 44.4732 104.41 44.6831 104.528 44.8615C104.647 45.04 104.816 45.1791 105.013 45.2611C105.21 45.3432 105.427 45.3646 105.637 45.3226C105.846 45.2805 106.038 45.177 106.189 45.0251C106.34 44.8731 106.443 44.6796 106.484 44.469C106.526 44.2584 106.504 44.0402 106.422 43.842C106.34 43.6438 106.201 43.4745 106.024 43.3555C105.846 43.2365 105.637 43.1732 105.424 43.1736C105.282 43.1736 105.142 43.2017 105.011 43.2562C104.88 43.3108 104.761 43.3907 104.661 43.4915C104.561 43.5923 104.482 43.7119 104.428 43.8435C104.374 43.9751 104.346 44.1162 104.346 44.2586Z" fill="#BDD0FB"/>
<path d="M105.331 29.3859C106.412 29.3859 107.288 28.5049 107.288 27.4182C107.288 26.3314 106.412 25.4504 105.331 25.4504C104.25 25.4504 103.374 26.3314 103.374 27.4182C103.374 28.5049 104.25 29.3859 105.331 29.3859Z" fill="url(#paint79_linear)"/>
<path d="M105.331 28.5867C105.973 28.5867 106.493 28.0635 106.493 27.4181C106.493 26.7727 105.973 26.2495 105.331 26.2495C104.689 26.2495 104.168 26.7727 104.168 27.4181C104.168 28.0635 104.689 28.5867 105.331 28.5867Z" fill="#BDD0FB"/>
<mask id="mask0" mask-type="alpha" maskUnits="userSpaceOnUse" x="0" y="9" width="160" height="160">
<path d="M152.39 117.702C136.277 155.303 93.7434 171.454 60.4168 168.7C51.3177 167.948 33.0017 166.435 18.7151 152.939C-8.73857 127.013 -4.51048 72.8418 21.7693 40.9458C25.1537 36.8382 48.58 9.31649 85.0845 9.68183C111.812 9.95438 130.572 25.0277 132.852 26.9066C138.685 31.7495 143.733 37.468 147.817 43.8588C161.277 64.8702 162.458 94.205 152.39 117.702Z" fill="url(#paint80_linear)"/>
</mask>
<g mask="url(#mask0)">
<path d="M42.1812 49.5314C42.1809 48.5929 42.3651 47.6635 42.7232 46.7964C43.0813 45.9293 43.6063 45.1414 44.2682 44.4777C44.93 43.814 45.7158 43.2875 46.5807 42.9283C47.4455 42.5692 48.3725 42.3843 49.3086 42.3843H109.914C111.525 42.3843 113.073 43.0043 114.24 44.1164C115.408 45.2285 116.104 46.7476 116.186 48.3597L120.659 136.45C120.69 137.072 120.597 137.693 120.384 138.278C120.171 138.862 119.843 139.398 119.419 139.853C118.996 140.308 118.485 140.673 117.918 140.926C117.351 141.179 116.739 141.315 116.119 141.327L46.6555 142.593C46.0719 142.603 45.4921 142.497 44.9499 142.281C44.4077 142.064 43.9139 141.741 43.4974 141.332C43.0809 140.922 42.75 140.433 42.524 139.893C42.298 139.354 42.1815 138.774 42.1812 138.189V49.5314Z" fill="url(#paint81_linear)"/>
<path d="M44.4865 120.975C44.444 120.975 44.4032 120.958 44.3731 120.928C44.3431 120.898 44.3262 120.857 44.3262 120.815V118.896C44.3262 118.851 44.3437 118.809 44.3748 118.778C44.4059 118.747 44.4481 118.729 44.4921 118.729C44.5361 118.729 44.5783 118.747 44.6094 118.778C44.6405 118.809 44.658 118.851 44.658 118.896V120.8C44.6602 120.823 44.6572 120.847 44.6494 120.869C44.6416 120.891 44.6291 120.911 44.6128 120.928C44.5965 120.944 44.5767 120.957 44.5549 120.965C44.5331 120.974 44.5097 120.977 44.4865 120.975Z" fill="white"/>
<path d="M47.1509 43.7424C47.149 43.4456 47.2106 43.1518 47.3316 42.8809C47.4526 42.61 47.6302 42.3683 47.8524 42.172C48.0746 41.9758 48.3361 41.8297 48.6194 41.7435C48.9027 41.6573 49.2012 41.633 49.4947 41.6723C57.7716 42.7974 86.2317 46.2769 109.762 44.4672C110.017 44.4471 110.273 44.4783 110.515 44.5589C110.758 44.6395 110.981 44.7679 111.174 44.9365C111.366 45.1051 111.522 45.3106 111.634 45.5408C111.746 45.771 111.81 46.0213 111.824 46.2769L116.515 134.76C116.545 135.342 116.345 135.913 115.957 136.348C115.569 136.784 115.026 137.047 114.445 137.082C104.543 137.669 63.7913 139.94 49.2542 138.413C48.8269 138.367 48.4313 138.165 48.143 137.845C47.8547 137.526 47.6939 137.111 47.6912 136.68L47.1509 43.7424Z" fill="#7D97F4"/>
<path d="M48.1206 45.9602C48.119 45.6742 48.1786 45.3911 48.2955 45.1301C48.4123 44.8692 48.5836 44.6364 48.7979 44.4474C49.0122 44.2585 49.2644 44.1179 49.5375 44.0351C49.8106 43.9523 50.0983 43.9292 50.381 43.9673C58.3453 45.0506 85.7346 48.3999 108.379 46.6561C108.624 46.6369 108.87 46.667 109.103 46.7447C109.336 46.8223 109.552 46.946 109.736 47.1083C109.921 47.2707 110.072 47.4684 110.179 47.69C110.286 47.9115 110.349 48.1524 110.362 48.3983L114.876 133.549C114.906 134.111 114.713 134.662 114.338 135.081C113.964 135.5 113.439 135.753 112.879 135.785C103.354 136.349 64.1326 138.533 50.1422 137.071C49.7309 137.028 49.35 136.833 49.0727 136.526C48.7954 136.218 48.6414 135.819 48.64 135.404L48.1206 45.9602Z" fill="#BDD0FB"/>
<path opacity="0.6" d="M95.676 53.5541C95.7684 53.5544 95.86 53.5359 95.9451 53.4999C96.0303 53.4638 96.1073 53.4108 96.1715 53.3442C96.2357 53.2776 96.2859 53.1986 96.3189 53.112C96.3519 53.0255 96.3672 52.9331 96.3637 52.8405V52.6798C96.3553 52.4885 96.2748 52.3075 96.1386 52.1733C96.0023 52.0391 95.8204 51.9617 95.6295 51.9566L63.8028 51.4407C63.4116 51.4407 63.2064 51.7284 63.3491 52.0932L63.6569 52.8968C63.7408 53.0855 63.875 53.2475 64.0446 53.3649C64.2143 53.4822 64.413 53.5505 64.6188 53.5621L95.676 53.5541Z" fill="white"/>
<path opacity="0.6" d="M63.7974 55.8491C63.4063 55.8491 63.2011 56.1368 63.3437 56.5032L63.6515 57.3068C63.7354 57.4956 63.8696 57.6576 64.0393 57.7749C64.2089 57.8923 64.4076 57.9606 64.6134 57.9722H95.6754C95.7678 57.9725 95.8594 57.954 95.9445 57.918C96.0297 57.8819 96.1067 57.8289 96.1709 57.7623C96.2351 57.6957 96.2853 57.6167 96.3183 57.5301C96.3513 57.4436 96.3666 57.3512 96.3631 57.2586V57.0979C96.3547 56.9066 96.2742 56.7256 96.138 56.5914C96.0018 56.4572 95.8198 56.3798 95.6289 56.3747L63.7974 55.8491Z" fill="white"/>
<path opacity="0.6" d="M105.549 65.8492C105.641 65.8498 105.732 65.8315 105.816 65.7954C105.901 65.7594 105.977 65.7064 106.04 65.6397C106.104 65.573 106.153 65.4939 106.184 65.4075C106.216 65.3211 106.229 65.2291 106.224 65.1372L106.216 64.9765C106.203 64.7846 106.119 64.6045 105.981 64.4714C105.842 64.3382 105.659 64.2616 105.467 64.2565L54.2622 63.7341C53.871 63.7341 53.7187 64.0009 53.9223 64.3352L54.4818 65.2465C54.6051 65.4227 54.7667 65.5685 54.9545 65.6729C55.1422 65.7773 55.3512 65.8376 55.5655 65.8492H105.549Z" fill="white"/>
<path opacity="0.6" d="M54.2622 68.2952C53.871 68.2952 53.7187 68.5603 53.9223 68.8946L54.4818 69.8059C54.6045 69.9832 54.7659 70.1302 54.9536 70.2357C55.1414 70.3413 55.3506 70.4026 55.5655 70.415H105.549C105.641 70.4156 105.732 70.3973 105.817 70.3612C105.901 70.325 105.978 70.2719 106.041 70.205C106.104 70.1381 106.153 70.0589 106.185 69.9723C106.216 69.8856 106.23 69.7935 106.224 69.7014L106.216 69.5407C106.203 69.3489 106.119 69.1688 105.981 69.0356C105.842 68.9025 105.659 68.8259 105.467 68.8207L54.2622 68.2952Z" fill="white"/>
<path opacity="0.6" d="M54.56 73.2261C54.1689 73.2261 54.0166 73.4929 54.2202 73.8272L54.7797 74.7384C54.9024 74.9156 55.0638 75.0624 55.2515 75.1677C55.4393 75.2729 55.6486 75.3339 55.8634 75.346H105.847C105.939 75.3466 106.03 75.3283 106.114 75.2922C106.199 75.2562 106.275 75.2032 106.338 75.1365C106.401 75.0697 106.45 74.9907 106.482 74.9043C106.514 74.8179 106.527 74.7259 106.522 74.634L106.514 74.4733C106.501 74.2814 106.417 74.1013 106.278 73.9682C106.14 73.835 105.957 73.7584 105.765 73.7532L54.56 73.2261Z" fill="white"/>
<path opacity="0.6" d="M108.146 118.301C108.238 118.301 108.329 118.283 108.413 118.247C108.498 118.211 108.574 118.158 108.637 118.091C108.7 118.024 108.749 117.945 108.78 117.858C108.812 117.771 108.825 117.679 108.819 117.587L108.811 117.426C108.798 117.235 108.714 117.055 108.576 116.921C108.437 116.788 108.254 116.712 108.063 116.706L54.9321 116.181C54.5409 116.181 54.3934 116.444 54.6034 116.776L55.1902 117.698C55.3163 117.875 55.4805 118.021 55.6707 118.125C55.8608 118.229 56.0719 118.289 56.2883 118.301H108.146Z" fill="white"/>
<path opacity="0.6" d="M54.9321 120.742C54.5409 120.742 54.3934 121.006 54.6034 121.337L55.1902 122.261C55.3165 122.437 55.4808 122.583 55.6709 122.687C55.861 122.791 56.072 122.851 56.2883 122.862H108.146C108.238 122.862 108.329 122.844 108.413 122.808C108.498 122.772 108.574 122.719 108.637 122.652C108.7 122.585 108.749 122.506 108.78 122.419C108.812 122.332 108.825 122.24 108.819 122.148L108.811 121.987C108.798 121.796 108.714 121.616 108.576 121.482C108.437 121.349 108.254 121.273 108.063 121.267L54.9321 120.742Z" fill="white"/>
<path opacity="0.6" d="M55.2415 125.673C54.8503 125.673 54.7028 125.936 54.9209 126.268L55.506 127.19C55.6324 127.366 55.7962 127.511 55.9856 127.615C56.175 127.719 56.3852 127.78 56.6009 127.793H108.455C108.547 127.793 108.638 127.775 108.722 127.739C108.807 127.703 108.883 127.65 108.946 127.583C109.009 127.516 109.058 127.437 109.089 127.351C109.121 127.265 109.134 127.173 109.129 127.081L109.121 126.92C109.108 126.728 109.023 126.548 108.885 126.414C108.746 126.281 108.562 126.205 108.37 126.2L55.2415 125.673Z" fill="white"/>
<path opacity="0.6" d="M105.894 83.0458C105.986 83.0465 106.077 83.0284 106.162 82.9925C106.247 82.9567 106.324 82.9038 106.388 82.8371C106.452 82.7704 106.501 82.6914 106.533 82.6048C106.566 82.5183 106.58 82.4261 106.575 82.3338V82.1731C106.567 81.9777 106.485 81.7928 106.346 81.6562C106.206 81.5196 106.02 81.4417 105.825 81.4386L63.0554 80.9163C62.6627 80.9163 62.4895 81.1927 62.6691 81.5415L63.1115 82.4013C63.217 82.586 63.3665 82.7415 63.5467 82.854C63.7269 82.9665 63.9321 83.0324 64.1439 83.0458H105.894Z" fill="white"/>
<path opacity="0.6" d="M63.0569 85.6299C62.6641 85.6299 62.491 85.9063 62.6705 86.2551L63.113 87.1133C63.22 87.2968 63.3708 87.4509 63.5518 87.5617C63.7329 87.6725 63.9384 87.7365 64.1502 87.7481H105.894C105.986 87.7489 106.078 87.7307 106.163 87.6948C106.248 87.6588 106.324 87.6057 106.388 87.5389C106.452 87.4721 106.502 87.3928 106.534 87.3061C106.566 87.2194 106.58 87.1269 106.575 87.0345V86.8738C106.564 86.6824 106.481 86.5021 106.344 86.3688C106.207 86.2354 106.024 86.1587 105.833 86.1538L63.0569 85.6299Z" fill="white"/>
<path opacity="0.6" d="M63.3071 90.561C62.916 90.561 62.7412 90.8375 62.9208 91.1862L63.3632 92.046C63.4705 92.2293 63.6213 92.383 63.8023 92.4935C63.9833 92.604 64.1888 92.6678 64.4005 92.6793H106.146C106.238 92.6801 106.329 92.6619 106.414 92.626C106.499 92.5901 106.575 92.5372 106.639 92.4705C106.703 92.4038 106.752 92.3248 106.784 92.2382C106.816 92.1517 106.83 92.0595 106.825 91.9673V91.8066C106.815 91.6149 106.732 91.4342 106.595 91.3005C106.457 91.1669 106.275 91.0899 106.083 91.085L63.3071 90.561Z" fill="white"/>
<path opacity="0.6" d="M57.2834 83.5872C58.1068 83.5872 58.7743 82.918 58.7743 82.0926C58.7743 81.2671 58.1068 80.5979 57.2834 80.5979C56.46 80.5979 55.7925 81.2671 55.7925 82.0926C55.7925 82.918 56.46 83.5872 57.2834 83.5872Z" fill="white"/>
<path opacity="0.6" d="M105.745 101.168C105.837 101.169 105.929 101.151 106.013 101.115C106.098 101.079 106.175 101.026 106.239 100.959C106.303 100.893 106.352 100.814 106.384 100.727C106.417 100.641 106.431 100.548 106.426 100.456V100.295C106.416 100.104 106.333 99.9231 106.196 99.7894C106.058 99.6557 105.876 99.5788 105.684 99.5738L62.9145 99.0515C62.5234 99.0515 62.3486 99.3279 62.5282 99.6767L62.9707 100.537C63.0779 100.72 63.2288 100.874 63.4098 100.984C63.5908 101.095 63.7963 101.158 64.0079 101.17L105.745 101.168Z" fill="white"/>
<path opacity="0.6" d="M62.9077 103.76C62.5165 103.76 62.3418 104.037 62.5214 104.386L62.9638 105.244C63.0709 105.427 63.2217 105.582 63.4027 105.692C63.5837 105.803 63.7893 105.867 64.001 105.879H105.745C105.837 105.88 105.928 105.861 106.013 105.826C106.098 105.79 106.175 105.737 106.238 105.67C106.302 105.603 106.352 105.524 106.384 105.438C106.416 105.351 106.431 105.259 106.426 105.167V105.006C106.415 104.815 106.332 104.634 106.195 104.501C106.057 104.368 105.875 104.291 105.684 104.286L62.9077 103.76Z" fill="white"/>
<path opacity="0.6" d="M63.158 108.691C62.7668 108.691 62.5937 108.968 62.7716 109.317L63.2141 110.176C63.3213 110.36 63.4722 110.513 63.6532 110.624C63.8342 110.734 64.0397 110.798 64.2513 110.81H105.997C106.089 110.81 106.18 110.792 106.265 110.756C106.35 110.721 106.426 110.668 106.49 110.601C106.553 110.534 106.603 110.455 106.635 110.369C106.667 110.282 106.681 110.19 106.676 110.098V109.937C106.665 109.745 106.583 109.565 106.446 109.431C106.308 109.297 106.125 109.22 105.934 109.215L63.158 108.691Z" fill="white"/>
<path opacity="0.6" d="M57.1349 101.718C57.9583 101.718 58.6258 101.049 58.6258 100.223C58.6258 99.3977 57.9583 98.7285 57.1349 98.7285C56.3115 98.7285 55.644 99.3977 55.644 100.223C55.644 101.049 56.3115 101.718 57.1349 101.718Z" fill="white"/>
<path d="M83.3697 30.3756C81.1799 28.8488 79.277 28.8842 77.9303 29.2747C77.3378 29.4533 76.8255 29.8324 76.4805 30.3473C76.1356 30.8622 75.9794 31.4811 76.0386 32.0985L76.6158 38.4227L83.4932 39.0351C83.4932 39.0351 87.6629 33.3698 83.3697 30.3756ZM80.3462 35.4736C80.0068 35.4739 79.675 35.3733 79.3926 35.1844C79.1103 34.9956 78.8902 34.727 78.7602 34.4127C78.6301 34.0984 78.596 33.7525 78.6622 33.4188C78.7283 33.0851 78.8917 32.7785 79.1317 32.5379C79.3717 32.2973 79.6775 32.1335 80.0104 32.0672C80.3433 32.0009 80.6883 32.0351 81.0018 32.1654C81.3153 32.2958 81.5832 32.5164 81.7716 32.7995C81.9599 33.0825 82.0603 33.4152 82.06 33.7555C82.0595 34.211 81.8789 34.6478 81.5576 34.9699C81.2363 35.292 80.8006 35.4731 80.3462 35.4736Z" fill="url(#paint82_linear)"/>
<path d="M77.3034 35.7563C77.2625 35.7564 77.2231 35.7408 77.1933 35.7127C77.1635 35.6846 77.1456 35.6462 77.1431 35.6052L77.0517 34.5975C77.0497 34.5758 77.052 34.5539 77.0585 34.533C77.0649 34.5122 77.0754 34.4928 77.0893 34.476C77.1032 34.4592 77.1203 34.4454 77.1396 34.4352C77.1589 34.425 77.1799 34.4187 77.2016 34.4167C77.2233 34.4147 77.2452 34.417 77.266 34.4235C77.2868 34.43 77.3061 34.4405 77.3228 34.4544C77.3396 34.4684 77.3534 34.4855 77.3636 34.5048C77.3737 34.5241 77.38 34.5453 77.382 34.567L77.4734 35.5747C77.476 35.5965 77.4742 35.6185 77.4681 35.6395C77.4619 35.6606 77.4515 35.6801 77.4376 35.697C77.4236 35.7138 77.4064 35.7277 77.3869 35.7376C77.3674 35.7475 77.3461 35.7533 77.3243 35.7547L77.3034 35.7563ZM77.1287 33.7827C77.0878 33.7828 77.0484 33.7672 77.0186 33.7391C76.9888 33.711 76.9708 33.6726 76.9684 33.6316L76.8978 32.8666C76.8442 32.2788 76.9949 31.6904 77.3245 31.2013C77.654 30.7121 78.1422 30.3522 78.7062 30.1826C79.5227 29.9406 80.3863 29.9053 81.2198 30.0798C81.2624 30.0887 81.2996 30.1143 81.3233 30.1507C81.3471 30.1872 81.3554 30.2316 81.3465 30.2743C81.3376 30.3169 81.3121 30.3542 81.2757 30.378C81.2394 30.4018 81.195 30.4102 81.1525 30.4012C80.3727 30.2376 79.5646 30.2707 78.8007 30.4977C78.3101 30.6447 77.8854 30.9575 77.5987 31.3829C77.312 31.8083 77.1811 32.3201 77.2281 32.8313L77.2986 33.5963C77.3013 33.6182 77.2994 33.6403 77.2932 33.6615C77.2869 33.6826 77.2764 33.7022 77.2623 33.7191C77.2482 33.736 77.2307 33.7498 77.211 33.7596C77.1914 33.7694 77.1699 33.7751 77.1479 33.7763L77.1287 33.7827Z" fill="#BDD0FB"/>
<path d="M67.2314 42.5033V39.3307C67.2317 39.0704 67.2842 38.8128 67.3858 38.5732C67.4874 38.3336 67.636 38.117 67.8228 37.9362C68.0096 37.7553 68.2308 37.614 68.4732 37.5206C68.7156 37.4272 68.9742 37.3836 69.2337 37.3925L91.0971 38.143C91.5645 38.1592 92.0092 38.3492 92.3446 38.676C92.6801 39.0028 92.8822 39.443 92.9118 39.9109L93.0946 42.9645L67.2314 42.5033Z" fill="url(#paint83_linear)"/>
<path d="M75.3848 38.5817H74.4438C74.3998 38.5817 74.3575 38.5642 74.3264 38.533C74.2953 38.5018 74.2778 38.4595 74.2778 38.4154C74.2778 38.3712 74.2953 38.3289 74.3264 38.2977C74.3575 38.2665 74.3998 38.249 74.4438 38.249H75.3848C75.4288 38.249 75.471 38.2665 75.5021 38.2977C75.5332 38.3289 75.5507 38.3712 75.5507 38.4154C75.5507 38.4595 75.5332 38.5018 75.5021 38.533C75.471 38.5642 75.4288 38.5817 75.3848 38.5817Z" fill="#BDD0FB"/>
<path d="M68.4142 41.5036C68.3717 41.5036 68.3309 41.4867 68.3009 41.4565C68.2708 41.4264 68.2539 41.3855 68.2539 41.3429V40.0571C68.2543 39.5793 68.4438 39.1211 68.7806 38.7831C69.1175 38.4451 69.5744 38.2548 70.051 38.2539H73.5089C73.553 38.2539 73.5952 38.2714 73.6263 38.3026C73.6574 38.3338 73.6749 38.3761 73.6749 38.4202C73.6749 38.4644 73.6574 38.5067 73.6263 38.5379C73.5952 38.5691 73.553 38.5866 73.5089 38.5866H70.0462C69.6576 38.5874 69.2851 38.7427 69.0105 39.0183C68.7358 39.294 68.5814 39.6675 68.5809 40.0571V41.3429C68.581 41.3645 68.5766 41.386 68.5682 41.4059C68.5597 41.4258 68.5473 41.4438 68.5317 41.4589C68.5162 41.4739 68.4977 41.4856 68.4775 41.4933C68.4573 41.5009 68.4358 41.5045 68.4142 41.5036Z" fill="#BDD0FB"/>
<path d="M58.323 43.3054C58.3486 42.7754 58.5766 42.2756 58.9599 41.9096C59.3431 41.5437 59.8522 41.3396 60.3814 41.3398H98.611C99.2769 41.3396 99.9216 41.5752 100.431 42.0051C100.941 42.4351 101.282 43.0316 101.396 43.6895L101.429 43.8776C101.489 44.2266 101.472 44.5845 101.38 44.9263C101.287 45.2681 101.121 45.5856 100.894 45.8565C100.667 46.1275 100.383 46.3455 100.063 46.4953C99.7427 46.6451 99.3939 46.7231 99.0406 46.7239H59.8155C59.6019 46.7239 59.3904 46.6804 59.194 46.5961C58.9977 46.5117 58.8204 46.3883 58.673 46.2332C58.5257 46.0781 58.4113 45.8946 58.3368 45.6938C58.2623 45.493 58.2292 45.2792 58.2397 45.0653L58.323 43.3054Z" fill="url(#paint84_linear)"/>
<path opacity="0.6" d="M98.3912 131.007C98.3031 130.999 98.2142 131.011 98.1314 131.042C98.0487 131.074 97.9743 131.124 97.9139 131.189C97.8535 131.254 97.8088 131.332 97.7831 131.417C97.7575 131.501 97.7516 131.591 97.766 131.679L97.8509 132.389C97.8794 132.583 97.9756 132.761 98.1223 132.89C98.2691 133.02 98.457 133.093 98.6525 133.096H107.34C107.433 133.096 107.525 133.078 107.611 133.042C107.697 133.006 107.775 132.954 107.84 132.887C107.906 132.821 107.958 132.743 107.993 132.656C108.028 132.57 108.046 132.478 108.045 132.384V132.224C108.04 132.031 107.964 131.848 107.831 131.709C107.698 131.57 107.518 131.486 107.327 131.473L98.3912 131.007Z" fill="white"/>
<path d="M103.331 133.414C101.7 133.412 100.106 132.932 98.7445 132.034C97.3827 131.135 96.3126 129.857 95.6659 128.357C95.0193 126.856 94.8242 125.199 95.1047 123.589C95.3852 121.979 96.1291 120.486 97.2449 119.294C98.3606 118.103 99.7995 117.264 101.385 116.881C102.97 116.499 104.632 116.589 106.166 117.141C107.701 117.693 109.041 118.683 110.022 119.989C111.002 121.294 111.581 122.859 111.686 124.49C111.829 126.708 111.088 128.893 109.624 130.564C108.161 132.234 106.095 133.253 103.882 133.397C103.698 133.408 103.514 133.414 103.331 133.414ZM103.348 116.97C103.174 116.97 102.999 116.97 102.823 116.986C100.714 117.12 98.7414 118.079 97.3314 119.657C95.9215 121.235 95.1867 123.306 95.2856 125.422C95.3845 127.538 96.3091 129.531 97.86 130.97C99.411 132.409 101.464 133.18 103.576 133.115C105.689 133.05 107.691 132.156 109.152 130.625C110.612 129.094 111.414 127.048 111.384 124.93C111.354 122.812 110.495 120.79 108.992 119.301C107.489 117.812 105.462 116.975 103.348 116.97Z" fill="#7D97F4"/>
<path d="M103.34 132.386C101.933 132.385 100.557 131.972 99.381 131.197C98.2052 130.422 97.2811 129.32 96.7224 128.025C96.1637 126.731 95.9949 125.3 96.2367 123.911C96.4785 122.521 97.1204 121.233 98.0834 120.204C99.0463 119.176 100.288 118.452 101.656 118.122C103.024 117.792 104.459 117.87 105.783 118.347C107.107 118.824 108.263 119.679 109.109 120.807C109.955 121.934 110.453 123.285 110.543 124.692C110.665 126.606 110.024 128.489 108.762 129.929C107.499 131.369 105.718 132.248 103.81 132.371C103.657 132.381 103.5 132.386 103.34 132.386ZM103.359 118.254C103.208 118.254 103.058 118.254 102.906 118.269C101.544 118.356 100.24 118.846 99.1565 119.677C98.0733 120.507 97.2602 121.642 96.8203 122.936C96.3803 124.23 96.3331 125.626 96.6848 126.947C97.0364 128.268 97.7711 129.455 98.7957 130.357C99.8204 131.26 101.089 131.837 102.441 132.016C103.793 132.196 105.168 131.969 106.391 131.365C107.615 130.76 108.632 129.806 109.314 128.622C109.996 127.438 110.313 126.078 110.224 124.713C110.11 122.965 109.337 121.325 108.063 120.126C106.788 118.927 105.107 118.258 103.359 118.254Z" fill="#7D97F4"/>
<path d="M107.354 126.856L98.8413 127.226C98.6644 127.234 98.5272 127.384 98.5349 127.561L98.5807 128.621C98.5883 128.798 98.7379 128.936 98.9148 128.928L107.427 128.558C107.604 128.551 107.742 128.401 107.734 128.223L107.688 127.163C107.68 126.986 107.531 126.849 107.354 126.856Z" fill="#7D97F4"/>
<path d="M107.198 121.686L98.6856 122.057C98.5086 122.065 98.3715 122.215 98.3792 122.392L98.4251 123.452C98.4328 123.63 98.5825 123.767 98.7594 123.759L107.272 123.388C107.449 123.381 107.586 123.23 107.578 123.053L107.532 121.993C107.525 121.816 107.375 121.678 107.198 121.686Z" fill="#7D97F4"/>
<path d="M108.52 124.5L97.1873 124.954C97.0102 124.962 96.8724 125.111 96.8795 125.289L96.9297 126.546C96.9368 126.723 97.086 126.861 97.2631 126.854L108.596 126.4C108.773 126.393 108.91 126.243 108.903 126.065L108.853 124.809C108.846 124.631 108.697 124.493 108.52 124.5Z" fill="#7D97F4"/>
<path d="M63.3573 106.673C63.3573 106.673 63.3573 123.203 56.0324 121.856C51.5585 121.041 48.9023 103.232 48.9023 103.232C48.9023 103.232 53.534 93.0292 54.0495 96.3699C57.813 120.651 60.6148 102.066 63.3573 106.673Z" fill="url(#paint85_linear)"/>
<path d="M45.4025 129.509C45.2446 130.339 44.5541 170.929 48.7591 189.121C48.7938 189.262 48.7778 189.411 48.7139 189.542C48.6501 189.673 48.5422 189.777 48.4089 189.838C47.3199 190.274 46.1621 190.517 44.9881 190.556C44.7556 190.561 44.528 190.489 44.3422 190.35C44.1565 190.211 44.0234 190.015 43.9646 189.792C42.7636 185.573 37.0072 164.428 36.255 144.227C35.4165 121.656 36.255 143.458 36.255 143.458L36.7483 129.507L45.4025 129.509Z" fill="url(#paint86_linear)"/>
<path d="M28.7674 130.754C25.3294 152.17 29.5073 183.686 30.9229 189.855C30.9605 190.035 31.0506 190.201 31.1821 190.331C31.3136 190.461 31.4807 190.55 31.6628 190.587C32.5566 190.752 33.4764 190.714 34.3535 190.478C34.5281 190.421 34.6808 190.313 34.7907 190.167C34.9006 190.022 34.9624 189.846 34.9676 189.665C35.1551 184.677 34.8147 154.063 38.0184 141.962C38.177 141.356 38.5387 140.822 39.0444 140.446L45.2619 135.883L45.7379 128.509L28.7674 130.754Z" fill="url(#paint87_linear)"/>
<path d="M50.6702 91.7677C40.3685 91.5993 29.0039 94.452 29.0039 94.452C25.9334 112.178 28.4662 132.626 28.4662 132.626C36.4397 134.695 45.4368 131.362 45.4368 131.362C46.7612 123.953 52.9466 103.098 52.9466 103.098C57.9803 102.473 53.8468 91.8214 50.6702 91.7677Z" fill="url(#paint88_linear)"/>
<path d="M32.9547 104.313L29.0086 94.4446C29.0086 94.4446 19.3802 100.914 17.7993 109.113C20.7045 109.316 23.5435 110.068 26.1625 111.329C26.8753 107.461 32.9547 104.313 32.9547 104.313Z" fill="url(#paint89_linear)"/>
<path d="M40.2354 83.4897L36.9577 92.8727C36.9311 92.9479 36.9321 93.0299 36.9605 93.1044C36.9889 93.1789 37.0429 93.2412 37.1131 93.2802C38.0083 93.7683 41.2268 95.1812 45.1063 92.7482C45.306 92.6236 45.4758 92.4572 45.6036 92.2608C45.7314 92.0643 45.8142 91.8426 45.8462 91.6111L46.9067 83.4897H40.2354Z" fill="url(#paint90_linear)"/>
<path d="M47.3684 74.8101C47.3684 74.8101 50.9667 81.5136 50.5055 84.2223C50.0443 86.931 45.5729 86.7358 41.6885 84.5371L38.9756 77.2992L47.3684 74.8101Z" fill="url(#paint91_linear)"/>
<path d="M41.861 80.9787C41.8982 80.9629 41.9314 80.9392 41.9584 80.9092C41.9853 80.8792 42.0052 80.8438 42.0167 80.8054C42.0283 80.767 42.0311 80.7265 42.0251 80.6869C42.019 80.6472 42.0043 80.6094 41.9818 80.576C41.5354 79.933 41.1973 79.2226 40.9805 78.4725C40.9805 78.4725 40.3343 78.0625 42.628 77.5184C44.9216 76.9742 48.3424 76.1323 49.0625 74.1995C49.763 72.3156 46.907 69.297 44.9833 71.3542C44.9562 71.3864 44.9223 71.4124 44.8839 71.4302C44.8456 71.448 44.8037 71.4572 44.7613 71.4572C44.719 71.4572 44.6771 71.448 44.6387 71.4302C44.6004 71.4124 44.5664 71.3864 44.5394 71.3542C44.0461 70.7343 42.7908 69.4458 41.0323 70.2267C39.3873 70.9588 39.2023 72.1497 39.2245 72.7525C39.2264 72.7937 39.2188 72.8348 39.2023 72.8728C39.1858 72.9107 39.1608 72.9444 39.1292 72.9714C39.0977 72.9984 39.0603 73.018 39.02 73.0287C38.9797 73.0394 38.9375 73.0409 38.8965 73.0331C38.0654 72.8793 36.0775 72.7525 35.1354 74.7706C34.3684 76.4397 34.8666 77.3841 35.3228 77.8454C35.3561 77.8797 35.38 77.9218 35.3921 77.9678C35.4042 78.0139 35.4042 78.0622 35.3921 78.1082C35.38 78.1542 35.3561 78.1964 35.3229 78.2307C35.2896 78.265 35.248 78.2903 35.202 78.3041C34.6569 78.4701 33.9491 78.9288 34.0206 80.1954C34.1193 81.9475 36.0973 81.7938 36.662 81.7132C36.7073 81.7069 36.7534 81.7117 36.7963 81.727C36.8393 81.7423 36.8779 81.7677 36.9087 81.8011C37.4019 82.3282 39.5698 84.5757 41.9276 84.8466C41.9748 84.8517 42.0225 84.8449 42.0664 84.8268C42.1102 84.8087 42.1487 84.7799 42.1783 84.7431C42.2078 84.7063 42.2275 84.6627 42.2354 84.6164C42.2433 84.57 42.2392 84.5224 42.2235 84.4781L41.2025 81.5375C41.1799 81.4716 41.183 81.3998 41.2113 81.3361C41.2396 81.2724 41.291 81.2215 41.3554 81.1934L41.861 80.9787Z" fill="url(#paint92_linear)"/>
<path d="M42.2706 81.3962C42.2706 81.3962 39.7081 79.6562 39.5305 81.1204C39.3529 82.5846 41.839 83.2435 43.0746 82.6969L42.2706 81.3962Z" fill="url(#paint93_linear)"/>
<path d="M48.7962 71.7935C48.7962 71.7935 44.7096 64.8143 37.4143 68.9847C30.119 73.1552 34.0651 78.275 34.0651 78.275L48.7962 71.7935Z" fill="url(#paint94_linear)"/>
<path d="M33.835 72.1595C33.835 72.1595 42.6273 65.2168 46.7806 72.6793C48.4774 71.9472 48.7955 71.7934 48.7955 71.7934C48.7955 71.7934 45.0961 65.107 40.0747 67.3594C35.0534 69.6118 33.8252 70.6904 33.835 72.1595Z" fill="url(#paint95_linear)"/>
<path opacity="0.6" d="M43.8979 74.1655C43.8853 74.1715 43.8713 74.1747 43.8573 74.1747C43.8432 74.1747 43.8293 74.1715 43.8166 74.1655L43.7598 74.1338C42.4527 73.4407 40.2602 72.2816 38.8075 72.877C38.0952 73.1965 37.4119 73.5762 36.7654 74.0118C36.2993 74.307 35.8159 74.6121 35.335 74.8634C34.6765 75.2051 33.9539 75.5687 33.1153 75.9786C33.094 75.988 33.0698 75.989 33.0478 75.9813C33.0258 75.9735 33.0076 75.9578 32.9969 75.9372C32.9914 75.9268 32.9881 75.9154 32.9871 75.9037C32.9861 75.892 32.9875 75.8803 32.9912 75.8691C32.9949 75.858 33.0008 75.8477 33.0085 75.8388C33.0163 75.83 33.0258 75.8228 33.0364 75.8176C33.8675 75.4076 34.5902 75.0416 35.2561 74.7024C35.7345 74.4583 36.213 74.1533 36.6742 73.8605C37.3302 73.4187 38.0233 73.0333 38.7459 72.7086C40.27 72.0839 42.5094 73.2675 43.8462 73.9727L43.9029 74.0044C43.9133 74.0098 43.9225 74.0172 43.93 74.0262C43.9376 74.0351 43.9432 74.0454 43.9466 74.0566C43.9501 74.0677 43.9513 74.0794 43.9501 74.091C43.9489 74.1025 43.9455 74.1138 43.9399 74.124C43.9317 74.1426 43.9167 74.1574 43.8979 74.1655Z" fill="white"/>
<path d="M34.0898 79.4027L51.4254 72.8139C51.4791 72.7949 51.5255 72.76 51.5584 72.7139C51.5912 72.6678 51.6089 72.6128 51.6089 72.5564C51.6089 72.5 51.5912 72.445 51.5584 72.3989C51.5255 72.3528 51.4791 72.3179 51.4254 72.299C50.5301 72.0159 49.0503 71.6157 48.4658 71.8792C46.5643 72.7187 34.0849 78.285 34.0849 78.285C34.0849 78.285 33.7544 78.4193 34.0898 79.4027Z" fill="url(#paint96_linear)"/>
<path d="M35.8799 93.0583C37.4928 96.8067 39.9295 100.845 42.7682 105.028L40.8963 132.579C36.457 134.112 32.1755 135.051 28.2294 134.453C27.5611 124.614 27.1591 115.473 27.5981 108.513C27.9187 103.759 28.0124 98.9736 27.4131 95.3352C28.2862 94.4444 30.7179 93.6318 35.8799 93.0583Z" fill="url(#paint97_linear)"/>
<path d="M46.5078 91.5795C45.5755 96.5041 44.3843 101.253 42.7689 105.028L40.897 132.579C42.778 132.666 44.6628 132.534 46.5127 132.186C48.4093 124.78 50.0444 115.311 51.6155 105.116C51.4478 100.33 51.5686 95.6158 52.1235 91.5356C50.2653 91.2032 48.3605 91.218 46.5078 91.5795Z" fill="url(#paint98_linear)"/>
<path opacity="0.7" d="M27.5855 122.915H40.0403V121.849H27.4844L27.5855 122.915Z" fill="white"/>
<path opacity="0.7" d="M27.8181 127.803H40.041V126.132H27.6973L27.8181 127.803Z" fill="white"/>
<path opacity="0.7" d="M43.0542 122.915H48.5664L48.7735 121.849H43.0542V122.915Z" fill="white"/>
<path opacity="0.7" d="M43.0542 127.803H47.5502L47.9103 126.132H43.0542V127.803Z" fill="white"/>
<path d="M41.3627 113.601C41.3627 113.601 30.5603 119.641 26.9152 114.482C26.578 114.036 26.3372 113.526 26.2078 112.984C26.0784 112.442 26.0631 111.88 26.1629 111.332C23.5441 110.07 20.7051 109.317 17.7997 109.113C17.2612 111.762 17.6987 114.514 19.0329 116.871C25.4181 128.428 42.7833 116.234 42.7833 116.234L41.3627 113.601Z" fill="url(#paint99_linear)"/>
<path d="M41.2053 118.825L46.9493 98.9806C46.9807 98.8706 47.0442 98.7723 47.132 98.698C47.2198 98.6237 47.3279 98.5769 47.4426 98.5633C48.4809 98.4437 51.4971 98.107 54.9795 97.8141C59.1722 97.4652 64.0407 97.1796 66.9509 97.4212C67.0464 97.4291 67.1386 97.4599 67.2194 97.5109C67.3002 97.562 67.3672 97.6318 67.4145 97.7142C67.4619 97.7967 67.4883 97.8893 67.4913 97.9841C67.4943 98.0789 67.4739 98.173 67.4318 98.2583C65.777 101.57 58.97 115.045 55.5616 119.46C55.5062 119.532 55.4345 119.59 55.3523 119.63C55.2701 119.67 55.1796 119.69 55.0881 119.689L41.7701 119.567C41.6792 119.567 41.5897 119.545 41.5084 119.505C41.4272 119.465 41.3564 119.407 41.3017 119.335C41.2471 119.263 41.2099 119.179 41.1932 119.091C41.1764 119.003 41.1806 118.912 41.2053 118.825Z" fill="url(#paint100_linear)"/>
<path d="M55.7904 96.1186L59.8795 95.4475C59.9295 95.4391 59.9809 95.4435 60.0287 95.4606C60.0764 95.4776 60.1189 95.5065 60.1519 95.5446C60.185 95.5828 60.2075 95.6287 60.2172 95.678C60.227 95.7272 60.2236 95.7782 60.2075 95.8258L59.8031 97.0459C59.7854 97.0988 59.7528 97.1455 59.7091 97.1806C59.6654 97.2156 59.6124 97.2375 59.5564 97.2436L55.6227 97.7634C55.5759 97.7673 55.5288 97.76 55.4854 97.7421C55.442 97.7242 55.4035 97.6963 55.3733 97.6606C55.3431 97.625 55.322 97.5827 55.3117 97.5373C55.3015 97.4919 55.3024 97.4447 55.3144 97.3998L55.5611 96.3407C55.5728 96.2854 55.6008 96.2347 55.6417 96.1952C55.6825 96.1557 55.7343 96.129 55.7904 96.1186Z" fill="#BDD0FB"/>
<path d="M52.7296 99.5421L53.0675 97.807C53.0827 97.7219 53.1257 97.6442 53.1898 97.5856C53.254 97.5269 53.3357 97.4907 53.4226 97.4825L61.6823 96.6528C61.7462 96.6466 61.8107 96.6556 61.8705 96.6788C61.9303 96.7021 61.9837 96.7391 62.0263 96.7867C62.0689 96.8343 62.0994 96.8912 62.1155 96.9528C62.1316 97.0143 62.1327 97.0788 62.1188 97.1408L61.5935 99.3053C61.5729 99.3897 61.5252 99.4653 61.4576 99.5207C61.3901 99.5761 61.3062 99.6084 61.2186 99.6128L53.1489 100.013C53.088 100.016 53.0271 100.006 52.9708 99.9823C52.9146 99.9589 52.8644 99.9232 52.8241 99.8779C52.7838 99.8326 52.7543 99.7789 52.738 99.7207C52.7216 99.6625 52.7187 99.6015 52.7296 99.5421Z" fill="#7D97F4"/>
<path d="M41.7624 117.351C41.4835 117.374 41.2058 117.294 40.9825 117.127C40.7591 116.96 40.6057 116.718 40.5515 116.446C40.2827 115.17 39.8659 112.837 40.152 111.809C40.554 110.37 41.3358 108.515 43.9377 108.927C46.5397 109.34 49.6102 110.423 49.6102 110.423C49.6102 110.423 49.4548 112.302 47.4768 111.695L48.71 112.634C48.71 112.634 48.5349 114.137 46.8652 113.335L48.0046 114.582C48.0046 114.582 47.2869 115.816 46.0587 115.023C44.9563 114.32 44.3644 117.102 41.7624 117.351Z" fill="url(#paint101_linear)"/>
<path d="M60.819 111.034C60.819 111.034 63.8476 108.105 64.2718 106.68C64.696 105.255 65.0388 103.264 62.612 102.246C60.1852 101.229 57.0037 100.538 57.0037 100.538C57.0037 100.538 56.1257 102.212 58.1283 102.734L56.5844 102.883C56.5844 102.883 55.9259 104.25 57.7731 104.447L56.138 104.904C56.138 104.904 56.0813 106.326 57.5487 106.302C59.0162 106.278 57.603 109.616 60.819 111.034Z" fill="url(#paint102_linear)"/>
<path d="M98.3423 20.2879L137.395 0.54248L157.184 21.3709L155.837 21.4215L137.097 1.3708L98.9225 20.8887L98.3423 20.2879Z" fill="url(#paint103_linear)"/>
<path d="M150.092 21.5381L150.179 26.051L149.386 26.0549L149.299 21.542L150.092 21.5381Z" fill="url(#paint104_linear)"/>
<path d="M157.301 25.6331L142.54 25.6953L142.578 26.0842L157.301 26.0219V25.6331Z" fill="url(#paint105_linear)"/>
<path d="M157.301 21.2639L142.727 21.3281L142.57 21.717L157.301 21.6528V21.2639Z" fill="url(#paint106_linear)"/>
<path d="M157.249 21.2698H156.827V26.0219H157.249V21.2698Z" fill="url(#paint107_linear)"/>
<path d="M142.958 90.1582H131.392V91.5504H142.958V90.1582Z" fill="url(#paint108_linear)"/>
<path d="M142.949 107.242H131.416V108.216H142.949V107.242Z" fill="url(#paint109_linear)"/>
<path d="M142.949 98.6299H131.416V99.604H142.949V98.6299Z" fill="url(#paint110_linear)"/>
<path d="M142.949 115.714H131.416V116.688H142.949V115.714Z" fill="url(#paint111_linear)"/>
<path d="M142.949 124.185H131.416V125.159H142.949V124.185Z" fill="url(#paint112_linear)"/>
<path d="M142.949 132.396H131.416V133.371H142.949V132.396Z" fill="url(#paint113_linear)"/>
<path d="M142.949 140.868H131.416V141.842H142.949V140.868Z" fill="url(#paint114_linear)"/>
<path d="M143.303 91.3782L142.786 90.6101L131.414 98.3468L131.932 99.1149L143.303 91.3782Z" fill="url(#paint115_linear)"/>
<path d="M143.437 108.408L142.92 107.64L131.549 115.377L132.066 116.145L143.437 108.408Z" fill="url(#paint116_linear)"/>
<path d="M143.303 125.439L142.786 124.671L131.414 132.407L131.932 133.175L143.303 125.439Z" fill="url(#paint117_linear)"/>
<path d="M142.168 141.949L142.758 141.236L132.198 132.413L131.608 133.127L142.168 141.949Z" fill="url(#paint118_linear)"/>
<path d="M142.345 124.672L142.935 123.959L132.375 115.136L131.785 115.85L142.345 124.672Z" fill="url(#paint119_linear)"/>
<path d="M142.344 107.728L142.934 107.015L132.374 98.1919L131.785 98.9052L142.344 107.728Z" fill="url(#paint120_linear)"/>
<path d="M143.021 141.928L142.504 141.159L131.108 148.889L131.625 149.658L143.021 141.928Z" fill="url(#paint121_linear)"/>
<path d="M132.412 90.1582H131.416V148.693H132.412V90.1582Z" fill="url(#paint122_linear)"/>
<path d="M143.577 90.2126H142.581V148.747H143.577V90.2126Z" fill="url(#paint123_linear)"/>
<path d="M142.849 20.0586H131.316V21.0327H142.849V20.0586Z" fill="url(#paint124_linear)"/>
<path d="M142.849 28.6506H131.316V29.6248H142.849V28.6506Z" fill="url(#paint125_linear)"/>
<path d="M142.849 37.1226H131.316V38.0967H142.849V37.1226Z" fill="url(#paint126_linear)"/>
<path d="M142.849 45.3337H131.316V46.3079H142.849V45.3337Z" fill="url(#paint127_linear)"/>
<path d="M142.849 53.8057H131.316V54.7798H142.849V53.8057Z" fill="url(#paint128_linear)"/>
<path d="M143.339 21.3467L142.822 20.5786L131.451 28.3153L131.968 29.0834L143.339 21.3467Z" fill="url(#paint129_linear)"/>
<path d="M143.2 38.3767L142.683 37.6086L131.312 45.3453L131.829 46.1134L143.2 38.3767Z" fill="url(#paint130_linear)"/>
<path d="M142.067 54.8891L142.657 54.1758L132.097 45.3531L131.507 46.0664L142.067 54.8891Z" fill="url(#paint131_linear)"/>
<path d="M142.243 37.6051L142.833 36.8918L132.273 28.0692L131.684 28.7825L142.243 37.6051Z" fill="url(#paint132_linear)"/>
<path d="M143.201 54.8343L142.684 54.0662L131.312 61.8028L131.83 62.5709L143.201 54.8343Z" fill="url(#paint133_linear)"/>
<path d="M132.312 19.9905H131.316V61.6435H132.312V19.9905Z" fill="url(#paint134_linear)"/>
<path d="M143.476 20.0273H142.479V61.6804H143.476V20.0273Z" fill="url(#paint135_linear)"/>
<path d="M84.6173 20.6614L84.7044 27.4337L83.5709 27.4415L83.4839 20.6692L84.6173 20.6614Z" fill="url(#paint136_linear)"/>
<path d="M90.2402 27.3811L90.863 27.0758L84.4763 20.459L83.8555 20.7662L90.2402 27.3811Z" fill="url(#paint137_linear)"/>
<path d="M104.106 27.2099L104.729 26.9027L98.3421 20.2878L97.7212 20.5951L104.106 27.2099Z" fill="url(#paint138_linear)"/>
<path d="M117.974 27.1982L118.597 26.891L112.21 20.2742L111.589 20.5814L117.974 27.1982Z" fill="url(#paint139_linear)"/>
<path d="M117.978 26.7394L118.562 27.0816L125.666 20.8517L125.08 20.5095L117.978 26.7394Z" fill="url(#paint140_linear)"/>
<path d="M103.903 26.7299L104.489 27.0721L111.827 20.6439L111.007 20.5L103.903 26.7299Z" fill="url(#paint141_linear)"/>
<path d="M90.1064 26.8212L90.6925 27.1634L98.1641 20.6613L97.2106 20.5913L90.1064 26.8212Z" fill="url(#paint142_linear)"/>
<path d="M131.374 27.1089L131.997 26.8016L125.61 20.1868L124.989 20.492L131.374 27.1089Z" fill="url(#paint143_linear)"/>
<path d="M131.225 26.5276L131.232 27.1109L83.5707 27.4259L83.563 26.8426L131.225 26.5276Z" fill="url(#paint144_linear)"/>
<path d="M131.474 19.9866L131.482 20.5699L83.5302 20.8888L83.5225 20.3055L131.474 19.9866Z" fill="url(#paint145_linear)"/>
<path d="M144.11 61.0854H130.256V62.1938H144.11V61.0854Z" fill="url(#paint146_linear)"/>
<path d="M143.397 70.7373H130.256V71.8456H143.397V70.7373Z" fill="url(#paint147_linear)"/>
<path d="M143.397 80.092H130.256V81.2003H143.397V80.092Z" fill="url(#paint148_linear)"/>
<path d="M143.397 89.7439H130.256V90.8522H143.397V89.7439Z" fill="url(#paint149_linear)"/>
<path d="M143.799 72.1677L143.209 71.2917L130.254 80.1063L130.844 80.9823L143.799 72.1677Z" fill="url(#paint150_linear)"/>
<path d="M131.147 80.1172L130.474 80.9299L141.994 90.5547L143.178 90.1697L131.147 80.1172Z" fill="url(#paint151_linear)"/>
<path d="M142.706 71.292L143.379 70.4785L132.489 61.3799L131.816 62.1934L142.706 71.292Z" fill="url(#paint152_linear)"/>
<path d="M131.391 61.0854H130.256V90.8271H131.391V61.0854Z" fill="url(#paint153_linear)"/>
<path d="M144.11 61.1125H142.975V90.8541H144.11V61.1125Z" fill="url(#paint154_linear)"/>
<path d="M146.557 67.9238H127.589C127.492 67.9238 127.415 68.0022 127.415 68.0988V68.4722C127.415 68.5688 127.492 68.6471 127.589 68.6471H146.557C146.653 68.6471 146.731 68.5688 146.731 68.4722V68.0988C146.731 68.0022 146.653 67.9238 146.557 67.9238Z" fill="url(#paint155_linear)"/>
<path d="M146.418 76.269H127.846V76.9924H146.418V76.269Z" fill="url(#paint156_linear)"/>
<path d="M128.565 67.9238H127.846V76.8603H128.565V67.9238Z" fill="url(#paint157_linear)"/>
<path d="M130.115 67.9238H129.755V76.8603H130.115V67.9238Z" fill="url(#paint158_linear)"/>
<path d="M131.902 67.9238H131.542V76.8603H131.902V67.9238Z" fill="url(#paint159_linear)"/>
<path d="M133.689 67.9238H133.329V76.8603H133.689V67.9238Z" fill="url(#paint160_linear)"/>
<path d="M135.474 67.9238H135.115V76.8603H135.474V67.9238Z" fill="url(#paint161_linear)"/>
<path d="M137.383 67.9238H137.023V76.8603H137.383V67.9238Z" fill="url(#paint162_linear)"/>
<path d="M139.168 67.9238H138.809V76.8603H139.168V67.9238Z" fill="url(#paint163_linear)"/>
<path d="M141.18 67.9238H140.82V76.8603H141.18V67.9238Z" fill="url(#paint164_linear)"/>
<path d="M142.967 67.9238H142.607V76.8603H142.967V67.9238Z" fill="url(#paint165_linear)"/>
<path d="M144.739 67.9238H144.379V76.8603H144.739V67.9238Z" fill="url(#paint166_linear)"/>
<path d="M146.418 67.9238H145.698V76.8603H146.418V67.9238Z" fill="url(#paint167_linear)"/>
<path d="M140.982 14.2186L140.717 13.8257L131.813 19.884L132.077 20.2769L140.982 14.2186Z" fill="url(#paint168_linear)"/>
<path d="M139.961 9.27914L139.696 8.88623L133.507 13.0973L133.771 13.4902L139.961 9.27914Z" fill="url(#paint169_linear)"/>
<path d="M142.392 20.2047L142.695 19.8416L134.098 12.5762L133.794 12.9394L142.392 20.2047Z" fill="url(#paint170_linear)"/>
<path d="M141.192 14.5906L141.525 14.2551L135.56 8.25781L135.226 8.59328L141.192 14.5906Z" fill="url(#paint171_linear)"/>
<path d="M131.316 20.0585L137.395 0.54248L143.476 20.2743H142.24L137.395 3.32687L132.312 19.9904L131.316 20.0585Z" fill="url(#paint172_linear)"/>
<path d="M123.281 16.6323H134.82C135.495 16.6323 136.143 16.9019 136.62 17.3818C137.097 17.8617 137.366 18.5125 137.366 19.1912V31.4681H116.13V23.8208C116.132 21.9148 116.886 20.0872 118.226 18.7395C119.567 17.3917 121.385 16.6339 123.281 16.6323Z" fill="url(#paint173_linear)"/>
<path d="M128.356 31.305L128.496 19.1661C128.498 18.9667 128.539 18.7698 128.618 18.5869C128.698 18.4041 128.812 18.2391 128.956 18.1018C129.1 17.9645 129.27 17.8577 129.456 17.7876C129.641 17.7176 129.839 17.6858 130.037 17.6942L134.679 17.8692C134.996 17.8807 135.297 18.0154 135.517 18.245C135.737 18.4745 135.861 18.781 135.861 19.1V31.305H128.356Z" fill="url(#paint174_linear)"/>
<path d="M134.845 26.5273H129.739V20.0505C129.739 19.8395 129.819 19.6364 129.963 19.4827C130.107 19.3291 130.303 19.2365 130.513 19.2241L133.288 19.055C134.138 19.0025 134.845 19.8794 134.845 20.976V26.5273Z" fill="url(#paint175_linear)"/>
<path d="M116.131 26.8445H122.684C122.942 26.8446 123.19 26.7428 123.375 26.5611C123.56 26.3793 123.666 26.1321 123.672 25.8723L123.883 16.7219C120.587 17.1283 115.754 19.8544 116.131 26.8445Z" fill="url(#paint176_linear)"/>
<path d="M145.741 76.9924H128.608V80.2377H145.741V76.9924Z" fill="url(#paint177_linear)"/>
<path d="M107.121 27.7546H106.614V45.6626H107.121V27.7546Z" fill="url(#paint178_linear)"/>
<path d="M104.101 27.5736L103.595 27.5757L103.667 45.6624L104.174 45.6603L104.101 27.5736Z" fill="url(#paint179_linear)"/>
<path d="M106.924 48.544L107.547 45.1355C107.575 44.9688 107.566 44.7979 107.522 44.6348C107.478 44.4717 107.399 44.3201 107.291 44.1907C107.183 44.0612 107.048 43.9569 106.896 43.8851C106.744 43.8132 106.578 43.7754 106.409 43.7744H104.862C104.677 43.7758 104.494 43.8153 104.325 43.8904C104.156 43.9655 104.004 44.0746 103.878 44.2111C103.753 44.3476 103.656 44.5084 103.595 44.6838C103.534 44.8592 103.509 45.0453 103.522 45.2308L103.794 48.7307C103.813 48.9596 103.879 49.182 103.99 49.3832C104.1 49.5843 104.252 49.7596 104.435 49.8973C104.996 50.3251 105.789 51.2156 105.963 52.8878C106.086 54.0895 105.576 55.1958 104.51 55.7733C103.93 56.0883 103.143 56.3216 102.479 56.1622C102.11 56.0689 100.795 55.5789 100.706 55.19C99.3884 52.1606 97.8758 55.0267 99.9241 56.7766C100.661 57.3924 101.546 57.8022 102.491 57.9647C106.897 58.6821 111.171 53.9611 107.405 50.1423C107.203 49.9346 107.054 49.6808 106.97 49.4025C106.886 49.1242 106.87 48.8297 106.924 48.544Z" fill="url(#paint180_linear)"/>
<path d="M107.101 44.9574C107.485 44.0258 107.045 42.9578 106.118 42.5719C105.192 42.186 104.129 42.6284 103.745 43.56C103.361 44.4916 103.802 45.5596 104.728 45.9455C105.655 46.3314 106.717 45.889 107.101 44.9574Z" fill="url(#paint181_linear)"/>
<path d="M104.346 44.2583C104.346 44.473 104.409 44.6828 104.528 44.8613C104.646 45.0398 104.815 45.1788 105.012 45.2609C105.21 45.3429 105.427 45.3643 105.636 45.3223C105.846 45.2803 106.038 45.1767 106.189 45.0248C106.34 44.8729 106.442 44.6794 106.484 44.4688C106.525 44.2582 106.503 44.04 106.422 43.8418C106.34 43.6435 106.201 43.4742 106.023 43.3552C105.845 43.2363 105.637 43.173 105.423 43.1733C105.281 43.1733 105.141 43.2014 105.01 43.256C104.879 43.3105 104.761 43.3905 104.661 43.4912C104.56 43.592 104.481 43.7116 104.427 43.8433C104.373 43.9749 104.345 44.1159 104.346 44.2583Z" fill="#BDD0FB"/>
<path d="M105.33 29.3859C106.411 29.3859 107.287 28.5049 107.287 27.4182C107.287 26.3314 106.411 25.4504 105.33 25.4504C104.249 25.4504 103.373 26.3314 103.373 27.4182C103.373 28.5049 104.249 29.3859 105.33 29.3859Z" fill="url(#paint182_linear)"/>
<path d="M105.33 28.5867C105.972 28.5867 106.492 28.0635 106.492 27.4181C106.492 26.7727 105.972 26.2495 105.33 26.2495C104.688 26.2495 104.167 26.7727 104.167 27.4181C104.167 28.0635 104.688 28.5867 105.33 28.5867Z" fill="#BDD0FB"/>
</g>
<defs>
<linearGradient id="paint0_linear" x1="168.598" y1="189.849" x2="51.358" y2="63.4558" gradientUnits="userSpaceOnUse">
<stop stop-color="#DAE3FE"/>
<stop offset="1" stop-color="#E9EFFD"/>
</linearGradient>
<linearGradient id="paint1_linear" x1="95.633" y1="233.803" x2="134.759" y2="-22.8108" gradientUnits="userSpaceOnUse">
<stop stop-color="#FF928E"/>
<stop offset="1" stop-color="#FE7062"/>
</linearGradient>
<linearGradient id="paint2_linear" x1="1079.52" y1="5530.43" x2="4036.11" y2="1732.14" gradientUnits="userSpaceOnUse">
<stop stop-color="#FF928E"/>
<stop offset="1" stop-color="#FE7062"/>
</linearGradient>
<linearGradient id="paint3_linear" x1="15780.8" y1="576.324" x2="15783.6" y2="-33.2926" gradientUnits="userSpaceOnUse">
<stop stop-color="#FF928E"/>
<stop offset="1" stop-color="#FE7062"/>
</linearGradient>
<linearGradient id="paint4_linear" x1="15702.4" y1="574.138" x2="15705.3" y2="-38.1201" gradientUnits="userSpaceOnUse">
<stop stop-color="#FF928E"/>
<stop offset="1" stop-color="#FE7062"/>
</linearGradient>
<linearGradient id="paint5_linear" x1="617.97" y1="5843.62" x2="3414.93" y2="4207.44" gradientUnits="userSpaceOnUse">
<stop stop-color="#FF928E"/>
<stop offset="1" stop-color="#FE7062"/>
</linearGradient>
<linearGradient id="paint6_linear" x1="12214" y1="1785.51" x2="12248.3" y2="-93.9214" gradientUnits="userSpaceOnUse">
<stop stop-color="#FF928E"/>
<stop offset="1" stop-color="#FE7062"/>
</linearGradient>
<linearGradient id="paint7_linear" x1="12328.6" y1="1295.42" x2="12345.4" y2="-19.8834" gradientUnits="userSpaceOnUse">
<stop stop-color="#FF928E"/>
<stop offset="1" stop-color="#FE7062"/>
</linearGradient>
<linearGradient id="paint8_linear" x1="12252.9" y1="1285.86" x2="12269.8" y2="-29.464" gradientUnits="userSpaceOnUse">
<stop stop-color="#FF928E"/>
<stop offset="1" stop-color="#FE7062"/>
</linearGradient>
<linearGradient id="paint9_linear" x1="12403.1" y1="1304.84" x2="12419.9" y2="-10.4568" gradientUnits="userSpaceOnUse">
<stop stop-color="#FF928E"/>
<stop offset="1" stop-color="#FE7062"/>
</linearGradient>
<linearGradient id="paint10_linear" x1="12477.6" y1="1314.29" x2="12494.4" y2="-1.03239" gradientUnits="userSpaceOnUse">
<stop stop-color="#FF928E"/>
<stop offset="1" stop-color="#FE7062"/>
</linearGradient>
<linearGradient id="paint11_linear" x1="933.981" y1="16905.3" x2="7813.03" y2="13873.5" gradientUnits="userSpaceOnUse">
<stop stop-color="#FF928E"/>
<stop offset="1" stop-color="#FE7062"/>
</linearGradient>
<linearGradient id="paint12_linear" x1="946.78" y1="16951.2" x2="7825.9" y2="13919.4" gradientUnits="userSpaceOnUse">
<stop stop-color="#FF928E"/>
<stop offset="1" stop-color="#FE7062"/>
</linearGradient>
<linearGradient id="paint13_linear" x1="957.948" y1="16993.8" x2="7837.01" y2="13962.1" gradientUnits="userSpaceOnUse">
<stop stop-color="#FF928E"/>
<stop offset="1" stop-color="#FE7062"/>
</linearGradient>
<linearGradient id="paint14_linear" x1="951.63" y1="16970.6" x2="7830.69" y2="13938.8" gradientUnits="userSpaceOnUse">
<stop stop-color="#FF928E"/>
<stop offset="1" stop-color="#FE7062"/>
</linearGradient>
<linearGradient id="paint15_linear" x1="939.709" y1="16926.5" x2="7818.76" y2="13894.8" gradientUnits="userSpaceOnUse">
<stop stop-color="#FF928E"/>
<stop offset="1" stop-color="#FE7062"/>
</linearGradient>
<linearGradient id="paint16_linear" x1="1167.2" y1="42939.8" x2="9738.55" y2="41340.8" gradientUnits="userSpaceOnUse">
<stop stop-color="#FF928E"/>
<stop offset="1" stop-color="#FE7062"/>
</linearGradient>
<linearGradient id="paint17_linear" x1="1234.61" y1="43241.2" x2="9805.96" y2="41642.2" gradientUnits="userSpaceOnUse">
<stop stop-color="#FF928E"/>
<stop offset="1" stop-color="#FE7062"/>
</linearGradient>
<linearGradient id="paint18_linear" x1="11556" y1="1198.36" x2="11572.9" y2="-116.967" gradientUnits="userSpaceOnUse">
<stop stop-color="#FF928E"/>
<stop offset="1" stop-color="#FE7062"/>
</linearGradient>
<linearGradient id="paint19_linear" x1="11631.6" y1="1207.91" x2="11648.4" y2="-107.4" gradientUnits="userSpaceOnUse">
<stop stop-color="#FF928E"/>
<stop offset="1" stop-color="#FE7062"/>
</linearGradient>
<linearGradient id="paint20_linear" x1="11706.1" y1="1217.32" x2="11722.9" y2="-97.9711" gradientUnits="userSpaceOnUse">
<stop stop-color="#FF928E"/>
<stop offset="1" stop-color="#FE7062"/>
</linearGradient>
<linearGradient id="paint21_linear" x1="11778.3" y1="1226.45" x2="11795.1" y2="-88.8346" gradientUnits="userSpaceOnUse">
<stop stop-color="#FF928E"/>
<stop offset="1" stop-color="#FE7062"/>
</linearGradient>
<linearGradient id="paint22_linear" x1="11852.8" y1="1235.92" x2="11869.6" y2="-79.4134" gradientUnits="userSpaceOnUse">
<stop stop-color="#FF928E"/>
<stop offset="1" stop-color="#FE7062"/>
</linearGradient>
<linearGradient id="paint23_linear" x1="884.919" y1="16723.9" x2="7764" y2="13692.2" gradientUnits="userSpaceOnUse">
<stop stop-color="#FF928E"/>
<stop offset="1" stop-color="#FE7062"/>
</linearGradient>
<linearGradient id="paint24_linear" x1="896.121" y1="16766.8" x2="7775.17" y2="13735" gradientUnits="userSpaceOnUse">
<stop stop-color="#FF928E"/>
<stop offset="1" stop-color="#FE7062"/>
</linearGradient>
<linearGradient id="paint25_linear" x1="902.88" y1="16807.1" x2="7790.41" y2="13771.3" gradientUnits="userSpaceOnUse">
<stop stop-color="#FF928E"/>
<stop offset="1" stop-color="#FE7062"/>
</linearGradient>
<linearGradient id="paint26_linear" x1="889.812" y1="16743.3" x2="7768.87" y2="13711.5" gradientUnits="userSpaceOnUse">
<stop stop-color="#FF928E"/>
<stop offset="1" stop-color="#FE7062"/>
</linearGradient>
<linearGradient id="paint27_linear" x1="907.705" y1="16809.5" x2="7786.76" y2="13777.8" gradientUnits="userSpaceOnUse">
<stop stop-color="#FF928E"/>
<stop offset="1" stop-color="#FE7062"/>
</linearGradient>
<linearGradient id="paint28_linear" x1="1106.92" y1="50331" x2="9761.62" y2="48966.3" gradientUnits="userSpaceOnUse">
<stop stop-color="#FF928E"/>
<stop offset="1" stop-color="#FE7062"/>
</linearGradient>
<linearGradient id="paint29_linear" x1="1174.28" y1="50687.6" x2="9828.74" y2="49322.9" gradientUnits="userSpaceOnUse">
<stop stop-color="#FF928E"/>
<stop offset="1" stop-color="#FE7062"/>
</linearGradient>
<linearGradient id="paint30_linear" x1="968.843" y1="7949.02" x2="5480.56" y2="2594.35" gradientUnits="userSpaceOnUse">
<stop stop-color="#FF928E"/>
<stop offset="1" stop-color="#FE7062"/>
</linearGradient>
<linearGradient id="paint31_linear" x1="5282.29" y1="8131.96" x2="6651.95" y2="-1010.65" gradientUnits="userSpaceOnUse">
<stop stop-color="#FF928E"/>
<stop offset="1" stop-color="#FE7062"/>
</linearGradient>
<linearGradient id="paint32_linear" x1="5786.32" y1="8205.24" x2="7155.98" y2="-937.379" gradientUnits="userSpaceOnUse">
<stop stop-color="#FF928E"/>
<stop offset="1" stop-color="#FE7062"/>
</linearGradient>
<linearGradient id="paint33_linear" x1="6291.29" y1="8281.12" x2="7661.7" y2="-863.947" gradientUnits="userSpaceOnUse">
<stop stop-color="#FF928E"/>
<stop offset="1" stop-color="#FE7062"/>
</linearGradient>
<linearGradient id="paint34_linear" x1="7159.85" y1="7895.37" x2="8291.41" y2="-833.079" gradientUnits="userSpaceOnUse">
<stop stop-color="#FF928E"/>
<stop offset="1" stop-color="#FE7062"/>
</linearGradient>
<linearGradient id="paint35_linear" x1="6802.31" y1="7824.98" x2="7901.24" y2="-911.949" gradientUnits="userSpaceOnUse">
<stop stop-color="#FF928E"/>
<stop offset="1" stop-color="#FE7062"/>
</linearGradient>
<linearGradient id="paint36_linear" x1="6342.57" y1="7756.01" x2="7423.85" y2="-985.403" gradientUnits="userSpaceOnUse">
<stop stop-color="#FF928E"/>
<stop offset="1" stop-color="#FE7062"/>
</linearGradient>
<linearGradient id="paint37_linear" x1="6778.86" y1="8349.72" x2="8148.5" y2="-792.879" gradientUnits="userSpaceOnUse">
<stop stop-color="#FF928E"/>
<stop offset="1" stop-color="#FE7062"/>
</linearGradient>
<linearGradient id="paint38_linear" x1="40385.7" y1="1093.33" x2="40389.2" y2="-119.791" gradientUnits="userSpaceOnUse">
<stop stop-color="#FF928E"/>
<stop offset="1" stop-color="#FE7062"/>
</linearGradient>
<linearGradient id="paint39_linear" x1="40417.1" y1="1090.79" x2="40420.6" y2="-127.571" gradientUnits="userSpaceOnUse">
<stop stop-color="#FF928E"/>
<stop offset="1" stop-color="#FE7062"/>
</linearGradient>
<linearGradient id="paint40_linear" x1="14295.2" y1="1406.97" x2="14313.4" y2="-89.4797" gradientUnits="userSpaceOnUse">
<stop stop-color="#FF928E"/>
<stop offset="1" stop-color="#FE7062"/>
</linearGradient>
<linearGradient id="paint41_linear" x1="13638.5" y1="1417.6" x2="13657.7" y2="-78.8652" gradientUnits="userSpaceOnUse">
<stop stop-color="#FF928E"/>
<stop offset="1" stop-color="#FE7062"/>
</linearGradient>
<linearGradient id="paint42_linear" x1="13732.2" y1="1428.14" x2="13751.4" y2="-68.3115" gradientUnits="userSpaceOnUse">
<stop stop-color="#FF928E"/>
<stop offset="1" stop-color="#FE7062"/>
</linearGradient>
<linearGradient id="paint43_linear" x1="13829" y1="1439.05" x2="13848.1" y2="-57.4325" gradientUnits="userSpaceOnUse">
<stop stop-color="#FF928E"/>
<stop offset="1" stop-color="#FE7062"/>
</linearGradient>
<linearGradient id="paint44_linear" x1="1052.7" y1="19190.6" x2="8895.46" y2="15730.6" gradientUnits="userSpaceOnUse">
<stop stop-color="#FF928E"/>
<stop offset="1" stop-color="#FE7062"/>
</linearGradient>
<linearGradient id="paint45_linear" x1="13327.5" y1="12781.3" x2="15057" y2="-1098.44" gradientUnits="userSpaceOnUse">
<stop stop-color="#FF928E"/>
<stop offset="1" stop-color="#FE7062"/>
</linearGradient>
<linearGradient id="paint46_linear" x1="1048.44" y1="17358.3" x2="8619.3" y2="13668.4" gradientUnits="userSpaceOnUse">
<stop stop-color="#FF928E"/>
<stop offset="1" stop-color="#FE7062"/>
</linearGradient>
<linearGradient id="paint47_linear" x1="1266.97" y1="36082.9" x2="10774.3" y2="33689.8" gradientUnits="userSpaceOnUse">
<stop stop-color="#FF928E"/>
<stop offset="1" stop-color="#FE7062"/>
</linearGradient>
<linearGradient id="paint48_linear" x1="1352.67" y1="36373.3" x2="10860.1" y2="33980.2" gradientUnits="userSpaceOnUse">
<stop stop-color="#FF928E"/>
<stop offset="1" stop-color="#FE7062"/>
</linearGradient>
<linearGradient id="paint49_linear" x1="141.956" y1="31.7578" x2="136.052" y2="75.456" gradientUnits="userSpaceOnUse">
<stop stop-color="#E1473D"/>
<stop offset="1" stop-color="#E9605A"/>
</linearGradient>
<linearGradient id="paint50_linear" x1="70737.9" y1="227.794" x2="70737" y2="390.473" gradientUnits="userSpaceOnUse">
<stop stop-color="#E1473D"/>
<stop offset="1" stop-color="#E9605A"/>
</linearGradient>
<linearGradient id="paint51_linear" x1="2862.31" y1="-1216.25" x2="385.722" y2="267.649" gradientUnits="userSpaceOnUse">
<stop stop-color="#E1473D"/>
<stop offset="1" stop-color="#E9605A"/>
</linearGradient>
<linearGradient id="paint52_linear" x1="1500.04" y1="-1191.4" x2="-35.7848" y2="-731.337" gradientUnits="userSpaceOnUse">
<stop stop-color="#E1473D"/>
<stop offset="1" stop-color="#E9605A"/>
</linearGradient>
<linearGradient id="paint53_linear" x1="1505.09" y1="-1191.4" x2="-30.83" y2="-731.273" gradientUnits="userSpaceOnUse">
<stop stop-color="#E1473D"/>
<stop offset="1" stop-color="#E9605A"/>
</linearGradient>
<linearGradient id="paint54_linear" x1="1510.2" y1="-1191.4" x2="-25.7183" y2="-731.272" gradientUnits="userSpaceOnUse">
<stop stop-color="#E1473D"/>
<stop offset="1" stop-color="#E9605A"/>
</linearGradient>
<linearGradient id="paint55_linear" x1="1515.43" y1="-1191.4" x2="-20.6009" y2="-731.201" gradientUnits="userSpaceOnUse">
<stop stop-color="#E1473D"/>
<stop offset="1" stop-color="#E9605A"/>
</linearGradient>
<linearGradient id="paint56_linear" x1="1520.71" y1="-1191.4" x2="-15.1576" y2="-731.308" gradientUnits="userSpaceOnUse">
<stop stop-color="#E1473D"/>
<stop offset="1" stop-color="#E9605A"/>
</linearGradient>
<linearGradient id="paint57_linear" x1="1525.76" y1="-1191.4" x2="-10.0531" y2="-731.344" gradientUnits="userSpaceOnUse">
<stop stop-color="#E1473D"/>
<stop offset="1" stop-color="#E9605A"/>
</linearGradient>
<linearGradient id="paint58_linear" x1="1531.75" y1="-1191.4" x2="-4.28201" y2="-731.201" gradientUnits="userSpaceOnUse">
<stop stop-color="#E1473D"/>
<stop offset="1" stop-color="#E9605A"/>
</linearGradient>
<linearGradient id="paint59_linear" x1="1536.92" y1="-1191.4" x2="0.830418" y2="-731.165" gradientUnits="userSpaceOnUse">
<stop stop-color="#E1473D"/>
<stop offset="1" stop-color="#E9605A"/>
</linearGradient>
<linearGradient id="paint60_linear" x1="1541.69" y1="-1191.4" x2="5.87385" y2="-731.344" gradientUnits="userSpaceOnUse">
<stop stop-color="#E1473D"/>
<stop offset="1" stop-color="#E9605A"/>
</linearGradient>
<linearGradient id="paint61_linear" x1="2946.64" y1="-1216.25" x2="470.021" y2="267.696" gradientUnits="userSpaceOnUse">
<stop stop-color="#E1473D"/>
<stop offset="1" stop-color="#E9605A"/>
</linearGradient>
<linearGradient id="paint62_linear" x1="430.392" y1="13075.7" x2="4311.15" y2="11958.4" gradientUnits="userSpaceOnUse">
<stop stop-color="#FF928E"/>
<stop offset="1" stop-color="#FE7062"/>
</linearGradient>
<linearGradient id="paint63_linear" x1="429.418" y1="9084.93" x2="4016.32" y2="7599.36" gradientUnits="userSpaceOnUse">
<stop stop-color="#FF928E"/>
<stop offset="1" stop-color="#FE7062"/>
</linearGradient>
<linearGradient id="paint64_linear" x1="429.23" y1="5332.36" x2="3234.64" y2="3352.74" gradientUnits="userSpaceOnUse">
<stop stop-color="#FF928E"/>
<stop offset="1" stop-color="#FE7062"/>
</linearGradient>
<linearGradient id="paint65_linear" x1="361.527" y1="13692.4" x2="4277.92" y2="12636.3" gradientUnits="userSpaceOnUse">
<stop stop-color="#FF928E"/>
<stop offset="1" stop-color="#FE7062"/>
</linearGradient>
<linearGradient id="paint66_linear" x1="435.05" y1="10265.5" x2="4138.81" y2="8906.56" gradientUnits="userSpaceOnUse">
<stop stop-color="#FF928E"/>
<stop offset="1" stop-color="#FE7062"/>
</linearGradient>
<linearGradient id="paint67_linear" x1="398.245" y1="3924.6" x2="2575.24" y2="1982.53" gradientUnits="userSpaceOnUse">
<stop stop-color="#FF928E"/>
<stop offset="1" stop-color="#FE7062"/>
</linearGradient>
<linearGradient id="paint68_linear" x1="12192.6" y1="23871.1" x2="18375.6" y2="-1253.78" gradientUnits="userSpaceOnUse">
<stop stop-color="#FF928E"/>
<stop offset="1" stop-color="#FE7062"/>
</linearGradient>
<linearGradient id="paint69_linear" x1="3269.81" y1="-39.1474" x2="3215.29" y2="79.9802" gradientUnits="userSpaceOnUse">
<stop stop-color="#E1473D"/>
<stop offset="1" stop-color="#E9605A"/>
</linearGradient>
<linearGradient id="paint70_linear" x1="80216.5" y1="484.109" x2="78567.6" y2="5667.34" gradientUnits="userSpaceOnUse">
<stop stop-color="#E1473D"/>
<stop offset="1" stop-color="#E9605A"/>
</linearGradient>
<linearGradient id="paint71_linear" x1="124.903" y1="24.3499" x2="139.322" y2="24.8578" gradientUnits="userSpaceOnUse">
<stop stop-color="#FEBBBA"/>
<stop offset="1" stop-color="#FF928E"/>
</linearGradient>
<linearGradient id="paint72_linear" x1="19139.4" y1="13.223" x2="17624.3" y2="1213.64" gradientUnits="userSpaceOnUse">
<stop stop-color="#FF928E"/>
<stop offset="1" stop-color="#FE7062"/>
</linearGradient>
<linearGradient id="paint73_linear" x1="29142.7" y1="-288.069" x2="27049" y2="1576.48" gradientUnits="userSpaceOnUse">
<stop stop-color="#FF928E"/>
<stop offset="1" stop-color="#FE7062"/>
</linearGradient>
<linearGradient id="paint74_linear" x1="64948.7" y1="1244.46" x2="64941.2" y2="1537.85" gradientUnits="userSpaceOnUse">
<stop stop-color="#E1473D"/>
<stop offset="1" stop-color="#E9605A"/>
</linearGradient>
<linearGradient id="paint75_linear" x1="882.479" y1="3408.6" x2="881.147" y2="3408.6" gradientUnits="userSpaceOnUse">
<stop stop-color="#FF928E"/>
<stop offset="1" stop-color="#FE7062"/>
</linearGradient>
<linearGradient id="paint76_linear" x1="891.477" y1="3428.78" x2="889.998" y2="3428.79" gradientUnits="userSpaceOnUse">
<stop stop-color="#FF928E"/>
<stop offset="1" stop-color="#FE7062"/>
</linearGradient>
<linearGradient id="paint77_linear" x1="-6246.3" y1="2408.18" x2="-5928.71" y2="2782.88" gradientUnits="userSpaceOnUse">
<stop stop-color="#E1473D"/>
<stop offset="1" stop-color="#E9605A"/>
</linearGradient>
<linearGradient id="paint78_linear" x1="104.923" y1="44.5467" x2="101.308" y2="44.5432" gradientUnits="userSpaceOnUse">
<stop stop-color="#09005D"/>
<stop offset="1" stop-color="#1A0F91"/>
</linearGradient>
<linearGradient id="paint79_linear" x1="9574.42" y1="580.394" x2="9495.18" y2="580.394" gradientUnits="userSpaceOnUse">
<stop stop-color="#09005D"/>
<stop offset="1" stop-color="#1A0F91"/>
</linearGradient>
<linearGradient id="paint80_linear" x1="168.598" y1="189.849" x2="51.358" y2="63.4558" gradientUnits="userSpaceOnUse">
<stop stop-color="#DAE3FE"/>
<stop offset="1" stop-color="#E9EFFD"/>
</linearGradient>
<linearGradient id="paint81_linear" x1="81.3966" y1="136.677" x2="75.7944" y2="-28.7353" gradientUnits="userSpaceOnUse">
<stop stop-color="#09005D"/>
<stop offset="1" stop-color="#1A0F91"/>
</linearGradient>
<linearGradient id="paint82_linear" x1="2852.95" y1="-451.884" x2="1086.25" y2="1708.34" gradientUnits="userSpaceOnUse">
<stop stop-color="#09005D"/>
<stop offset="1" stop-color="#1A0F91"/>
</linearGradient>
<linearGradient id="paint83_linear" x1="8296.36" y1="-150.146" x2="7975.46" y2="1808.85" gradientUnits="userSpaceOnUse">
<stop stop-color="#09005D"/>
<stop offset="1" stop-color="#1A0F91"/>
</linearGradient>
<linearGradient id="paint84_linear" x1="84.8386" y1="7.44462" x2="78.9501" y2="50.5916" gradientUnits="userSpaceOnUse">
<stop stop-color="#4F52FF"/>
<stop offset="1" stop-color="#4042E2"/>
</linearGradient>
<linearGradient id="paint85_linear" x1="48.9073" y1="108.82" x2="63.3573" y2="108.82" gradientUnits="userSpaceOnUse">
<stop stop-color="#FEBBBA"/>
<stop offset="1" stop-color="#FF928E"/>
</linearGradient>
<linearGradient id="paint86_linear" x1="35.8801" y1="160.033" x2="48.7739" y2="160.033" gradientUnits="userSpaceOnUse">
<stop stop-color="#09005D"/>
<stop offset="1" stop-color="#1A0F91"/>
</linearGradient>
<linearGradient id="paint87_linear" x1="44789.6" y1="23748.6" x2="46147.6" y2="23748.6" gradientUnits="userSpaceOnUse">
<stop stop-color="#09005D"/>
<stop offset="1" stop-color="#1A0F91"/>
</linearGradient>
<linearGradient id="paint88_linear" x1="-10908.5" y1="3378.59" x2="-1163.14" y2="11587.8" gradientUnits="userSpaceOnUse">
<stop stop-color="#09005D"/>
<stop offset="1" stop-color="#1A0F91"/>
</linearGradient>
<linearGradient id="paint89_linear" x1="-6198.58" y1="1707.92" x2="-2208.76" y2="6213.37" gradientUnits="userSpaceOnUse">
<stop stop-color="#09005D"/>
<stop offset="1" stop-color="#1A0F91"/>
</linearGradient>
<linearGradient id="paint90_linear" x1="24216.2" y1="1039.34" x2="24619.1" y2="1039.34" gradientUnits="userSpaceOnUse">
<stop stop-color="#FEBBBA"/>
<stop offset="1" stop-color="#FF928E"/>
</linearGradient>
<linearGradient id="paint91_linear" x1="-40037.3" y1="17599.9" x2="-40546.5" y2="17285.3" gradientUnits="userSpaceOnUse">
<stop stop-color="#FEBBBA"/>
<stop offset="1" stop-color="#FF928E"/>
</linearGradient>
<linearGradient id="paint92_linear" x1="-53713.7" y1="22410.2" x2="-52859.1" y2="23094.6" gradientUnits="userSpaceOnUse">
<stop stop-color="#09005D"/>
<stop offset="1" stop-color="#1A0F91"/>
</linearGradient>
<linearGradient id="paint93_linear" x1="-10751.3" y1="6257.83" x2="-10842" y2="6189.33" gradientUnits="userSpaceOnUse">
<stop stop-color="#FEBBBA"/>
<stop offset="1" stop-color="#FF928E"/>
</linearGradient>
<linearGradient id="paint94_linear" x1="36.9285" y1="64.7606" x2="42.2578" y2="77.3689" gradientUnits="userSpaceOnUse">
<stop stop-color="#FF928E"/>
<stop offset="1" stop-color="#FE7062"/>
</linearGradient>
<linearGradient id="paint95_linear" x1="4589.33" y1="363.243" x2="4580.36" y2="734.616" gradientUnits="userSpaceOnUse">
<stop stop-color="#FF928E"/>
<stop offset="1" stop-color="#FE7062"/>
</linearGradient>
<linearGradient id="paint96_linear" x1="5343.77" y1="-479.438" x2="5343.77" y2="-205.496" gradientUnits="userSpaceOnUse">
<stop stop-color="#FF928E"/>
<stop offset="1" stop-color="#FE7062"/>
</linearGradient>
<linearGradient id="paint97_linear" x1="5460.98" y1="5039.04" x2="4507.39" y2="6478.37" gradientUnits="userSpaceOnUse">
<stop stop-color="#FF928E"/>
<stop offset="1" stop-color="#FE7062"/>
</linearGradient>
<linearGradient id="paint98_linear" x1="3129.9" y1="-22311.4" x2="4429.76" y2="-21887.5" gradientUnits="userSpaceOnUse">
<stop stop-color="#FF928E"/>
<stop offset="1" stop-color="#FE7062"/>
</linearGradient>
<linearGradient id="paint99_linear" x1="60092.1" y1="2644.5" x2="62668.8" y2="2644.5" gradientUnits="userSpaceOnUse">
<stop stop-color="#FEBBBA"/>
<stop offset="1" stop-color="#FF928E"/>
</linearGradient>
<linearGradient id="paint100_linear" x1="-6578.28" y1="2452.47" x2="-6578.28" y2="6411.09" gradientUnits="userSpaceOnUse">
<stop stop-color="#4F52FF"/>
<stop offset="1" stop-color="#4042E2"/>
</linearGradient>
<linearGradient id="paint101_linear" x1="-32626.5" y1="1716.14" x2="-32256.4" y2="1716.14" gradientUnits="userSpaceOnUse">
<stop stop-color="#FEBBBA"/>
<stop offset="1" stop-color="#FF928E"/>
</linearGradient>
<linearGradient id="paint102_linear" x1="-42173.9" y1="2888.81" x2="-42450" y2="2714.76" gradientUnits="userSpaceOnUse">
<stop stop-color="#FEBBBA"/>
<stop offset="1" stop-color="#FF928E"/>
</linearGradient>
<linearGradient id="paint103_linear" x1="95.6325" y1="233.803" x2="134.758" y2="-22.8108" gradientUnits="userSpaceOnUse">
<stop stop-color="#FF928E"/>
<stop offset="1" stop-color="#FE7062"/>
</linearGradient>
<linearGradient id="paint104_linear" x1="1079.53" y1="5530.41" x2="4036.1" y2="1732.07" gradientUnits="userSpaceOnUse">
<stop stop-color="#FF928E"/>
<stop offset="1" stop-color="#FE7062"/>
</linearGradient>
<linearGradient id="paint105_linear" x1="15780.8" y1="576.326" x2="15783.6" y2="-33.2928" gradientUnits="userSpaceOnUse">
<stop stop-color="#FF928E"/>
<stop offset="1" stop-color="#FE7062"/>
</linearGradient>
<linearGradient id="paint106_linear" x1="15702.4" y1="574.128" x2="15705.2" y2="-38.1191" gradientUnits="userSpaceOnUse">
<stop stop-color="#FF928E"/>
<stop offset="1" stop-color="#FE7062"/>
</linearGradient>
<linearGradient id="paint107_linear" x1="618.019" y1="5843.62" x2="3415.13" y2="4207.17" gradientUnits="userSpaceOnUse">
<stop stop-color="#FF928E"/>
<stop offset="1" stop-color="#FE7062"/>
</linearGradient>
<linearGradient id="paint108_linear" x1="12214" y1="1785.54" x2="12248.3" y2="-93.9254" gradientUnits="userSpaceOnUse">
<stop stop-color="#FF928E"/>
<stop offset="1" stop-color="#FE7062"/>
</linearGradient>
<linearGradient id="paint109_linear" x1="12328.6" y1="1295.45" x2="12345.5" y2="-19.8874" gradientUnits="userSpaceOnUse">
<stop stop-color="#FF928E"/>
<stop offset="1" stop-color="#FE7062"/>
</linearGradient>
<linearGradient id="paint110_linear" x1="12253" y1="1285.84" x2="12269.8" y2="-29.462" gradientUnits="userSpaceOnUse">
<stop stop-color="#FF928E"/>
<stop offset="1" stop-color="#FE7062"/>
</linearGradient>
<linearGradient id="paint111_linear" x1="12403.1" y1="1304.84" x2="12420" y2="-10.4568" gradientUnits="userSpaceOnUse">
<stop stop-color="#FF928E"/>
<stop offset="1" stop-color="#FE7062"/>
</linearGradient>
<linearGradient id="paint112_linear" x1="12477.6" y1="1314.32" x2="12494.5" y2="-1.03631" gradientUnits="userSpaceOnUse">
<stop stop-color="#FF928E"/>
<stop offset="1" stop-color="#FE7062"/>
</linearGradient>
<linearGradient id="paint113_linear" x1="12549.8" y1="1323.38" x2="12566.7" y2="8.10786" gradientUnits="userSpaceOnUse">
<stop stop-color="#FF928E"/>
<stop offset="1" stop-color="#FE7062"/>
</linearGradient>
<linearGradient id="paint114_linear" x1="12624.3" y1="1332.86" x2="12641.2" y2="17.5284" gradientUnits="userSpaceOnUse">
<stop stop-color="#FF928E"/>
<stop offset="1" stop-color="#FE7062"/>
</linearGradient>
<linearGradient id="paint115_linear" x1="933.982" y1="16905.3" x2="7813.04" y2="13873.6" gradientUnits="userSpaceOnUse">
<stop stop-color="#FF928E"/>
<stop offset="1" stop-color="#FE7062"/>
</linearGradient>
<linearGradient id="paint116_linear" x1="946.775" y1="16951.1" x2="7825.9" y2="13919.4" gradientUnits="userSpaceOnUse">
<stop stop-color="#FF928E"/>
<stop offset="1" stop-color="#FE7062"/>
</linearGradient>
<linearGradient id="paint117_linear" x1="957.942" y1="16993.7" x2="7837" y2="13961.9" gradientUnits="userSpaceOnUse">
<stop stop-color="#FF928E"/>
<stop offset="1" stop-color="#FE7062"/>
</linearGradient>
<linearGradient id="paint118_linear" x1="962.784" y1="17013.5" x2="7841.85" y2="13981.8" gradientUnits="userSpaceOnUse">
<stop stop-color="#FF928E"/>
<stop offset="1" stop-color="#FE7062"/>
</linearGradient>
<linearGradient id="paint119_linear" x1="951.628" y1="16970.4" x2="7830.67" y2="13938.7" gradientUnits="userSpaceOnUse">
<stop stop-color="#FF928E"/>
<stop offset="1" stop-color="#FE7062"/>
</linearGradient>
<linearGradient id="paint120_linear" x1="939.714" y1="16926.5" x2="7818.76" y2="13894.7" gradientUnits="userSpaceOnUse">
<stop stop-color="#FF928E"/>
<stop offset="1" stop-color="#FE7062"/>
</linearGradient>
<linearGradient id="paint121_linear" x1="946.04" y1="17058.8" x2="7838.01" y2="14033.2" gradientUnits="userSpaceOnUse">
<stop stop-color="#FF928E"/>
<stop offset="1" stop-color="#FE7062"/>
</linearGradient>
<linearGradient id="paint122_linear" x1="1167.18" y1="71328.2" x2="9926.4" y2="70345.3" gradientUnits="userSpaceOnUse">
<stop stop-color="#FF928E"/>
<stop offset="1" stop-color="#FE7062"/>
</linearGradient>
<linearGradient id="paint123_linear" x1="1234.64" y1="71829.2" x2="9994.25" y2="70846.3" gradientUnits="userSpaceOnUse">
<stop stop-color="#FF928E"/>
<stop offset="1" stop-color="#FE7062"/>
</linearGradient>
<linearGradient id="paint124_linear" x1="11556" y1="1198.36" x2="11572.9" y2="-116.966" gradientUnits="userSpaceOnUse">
<stop stop-color="#FF928E"/>
<stop offset="1" stop-color="#FE7062"/>
</linearGradient>
<linearGradient id="paint125_linear" x1="11631.5" y1="1207.9" x2="11648.4" y2="-107.399" gradientUnits="userSpaceOnUse">
<stop stop-color="#FF928E"/>
<stop offset="1" stop-color="#FE7062"/>
</linearGradient>
<linearGradient id="paint126_linear" x1="11706.1" y1="1217.34" x2="11722.9" y2="-97.9733" gradientUnits="userSpaceOnUse">
<stop stop-color="#FF928E"/>
<stop offset="1" stop-color="#FE7062"/>
</linearGradient>
<linearGradient id="paint127_linear" x1="11778.3" y1="1226.48" x2="11795.1" y2="-88.8372" gradientUnits="userSpaceOnUse">
<stop stop-color="#FF928E"/>
<stop offset="1" stop-color="#FE7062"/>
</linearGradient>
<linearGradient id="paint128_linear" x1="11852.8" y1="1235.89" x2="11869.6" y2="-79.4098" gradientUnits="userSpaceOnUse">
<stop stop-color="#FF928E"/>
<stop offset="1" stop-color="#FE7062"/>
</linearGradient>
<linearGradient id="paint129_linear" x1="884.918" y1="16723.9" x2="7763.99" y2="13692.2" gradientUnits="userSpaceOnUse">
<stop stop-color="#FF928E"/>
<stop offset="1" stop-color="#FE7062"/>
</linearGradient>
<linearGradient id="paint130_linear" x1="896.124" y1="16766.7" x2="7775.17" y2="13735" gradientUnits="userSpaceOnUse">
<stop stop-color="#FF928E"/>
<stop offset="1" stop-color="#FE7062"/>
</linearGradient>
<linearGradient id="paint131_linear" x1="902.873" y1="16807.1" x2="7790.38" y2="13771.3" gradientUnits="userSpaceOnUse">
<stop stop-color="#FF928E"/>
<stop offset="1" stop-color="#FE7062"/>
</linearGradient>
<linearGradient id="paint132_linear" x1="889.813" y1="16743.3" x2="7768.86" y2="13711.5" gradientUnits="userSpaceOnUse">
<stop stop-color="#FF928E"/>
<stop offset="1" stop-color="#FE7062"/>
</linearGradient>
<linearGradient id="paint133_linear" x1="907.703" y1="16809.4" x2="7786.75" y2="13777.7" gradientUnits="userSpaceOnUse">
<stop stop-color="#FF928E"/>
<stop offset="1" stop-color="#FE7062"/>
</linearGradient>
<linearGradient id="paint134_linear" x1="1106.89" y1="50331" x2="9761.34" y2="48966.3" gradientUnits="userSpaceOnUse">
<stop stop-color="#FF928E"/>
<stop offset="1" stop-color="#FE7062"/>
</linearGradient>
<linearGradient id="paint135_linear" x1="1174.28" y1="50687.6" x2="9828.73" y2="49322.9" gradientUnits="userSpaceOnUse">
<stop stop-color="#FF928E"/>
<stop offset="1" stop-color="#FE7062"/>
</linearGradient>
<linearGradient id="paint136_linear" x1="968.865" y1="7949.01" x2="5480.56" y2="2594.24" gradientUnits="userSpaceOnUse">
<stop stop-color="#FF928E"/>
<stop offset="1" stop-color="#FE7062"/>
</linearGradient>
<linearGradient id="paint137_linear" x1="5282.3" y1="8131.97" x2="6651.96" y2="-1010.65" gradientUnits="userSpaceOnUse">
<stop stop-color="#FF928E"/>
<stop offset="1" stop-color="#FE7062"/>
</linearGradient>
<linearGradient id="paint138_linear" x1="5786.35" y1="8205.24" x2="7156" y2="-937.38" gradientUnits="userSpaceOnUse">
<stop stop-color="#FF928E"/>
<stop offset="1" stop-color="#FE7062"/>
</linearGradient>
<linearGradient id="paint139_linear" x1="6291.29" y1="8281.12" x2="7661.69" y2="-863.946" gradientUnits="userSpaceOnUse">
<stop stop-color="#FF928E"/>
<stop offset="1" stop-color="#FE7062"/>
</linearGradient>
<linearGradient id="paint140_linear" x1="7159.83" y1="7895.36" x2="8291.38" y2="-833.078" gradientUnits="userSpaceOnUse">
<stop stop-color="#FF928E"/>
<stop offset="1" stop-color="#FE7062"/>
</linearGradient>
<linearGradient id="paint141_linear" x1="6802.33" y1="7824.98" x2="7901.25" y2="-911.95" gradientUnits="userSpaceOnUse">
<stop stop-color="#FF928E"/>
<stop offset="1" stop-color="#FE7062"/>
</linearGradient>
<linearGradient id="paint142_linear" x1="6342.55" y1="7756.01" x2="7423.84" y2="-985.402" gradientUnits="userSpaceOnUse">
<stop stop-color="#FF928E"/>
<stop offset="1" stop-color="#FE7062"/>
</linearGradient>
<linearGradient id="paint143_linear" x1="6778.83" y1="8349.74" x2="8148.48" y2="-792.879" gradientUnits="userSpaceOnUse">
<stop stop-color="#FF928E"/>
<stop offset="1" stop-color="#FE7062"/>
</linearGradient>
<linearGradient id="paint144_linear" x1="40385.7" y1="1093.33" x2="40389.2" y2="-119.791" gradientUnits="userSpaceOnUse">
<stop stop-color="#FF928E"/>
<stop offset="1" stop-color="#FE7062"/>
</linearGradient>
<linearGradient id="paint145_linear" x1="40417.1" y1="1090.79" x2="40420.5" y2="-127.57" gradientUnits="userSpaceOnUse">
<stop stop-color="#FF928E"/>
<stop offset="1" stop-color="#FE7062"/>
</linearGradient>
<linearGradient id="paint146_linear" x1="14295.1" y1="1407" x2="14313.3" y2="-89.4823" gradientUnits="userSpaceOnUse">
<stop stop-color="#FF928E"/>
<stop offset="1" stop-color="#FE7062"/>
</linearGradient>
<linearGradient id="paint147_linear" x1="13638.5" y1="1417.6" x2="13657.7" y2="-78.8652" gradientUnits="userSpaceOnUse">
<stop stop-color="#FF928E"/>
<stop offset="1" stop-color="#FE7062"/>
</linearGradient>
<linearGradient id="paint148_linear" x1="13732.2" y1="1428.14" x2="13751.4" y2="-68.3115" gradientUnits="userSpaceOnUse">
<stop stop-color="#FF928E"/>
<stop offset="1" stop-color="#FE7062"/>
</linearGradient>
<linearGradient id="paint149_linear" x1="13828.9" y1="1439.04" x2="13848.1" y2="-57.4315" gradientUnits="userSpaceOnUse">
<stop stop-color="#FF928E"/>
<stop offset="1" stop-color="#FE7062"/>
</linearGradient>
<linearGradient id="paint150_linear" x1="1052.7" y1="19190.6" x2="8895.46" y2="15730.7" gradientUnits="userSpaceOnUse">
<stop stop-color="#FF928E"/>
<stop offset="1" stop-color="#FE7062"/>
</linearGradient>
<linearGradient id="paint151_linear" x1="13327.5" y1="12781.3" x2="15057" y2="-1098.44" gradientUnits="userSpaceOnUse">
<stop stop-color="#FF928E"/>
<stop offset="1" stop-color="#FE7062"/>
</linearGradient>
<linearGradient id="paint152_linear" x1="1048.43" y1="17358.3" x2="8619.28" y2="13668.4" gradientUnits="userSpaceOnUse">
<stop stop-color="#FF928E"/>
<stop offset="1" stop-color="#FE7062"/>
</linearGradient>
<linearGradient id="paint153_linear" x1="1266.92" y1="36082.9" x2="10773.9" y2="33690" gradientUnits="userSpaceOnUse">
<stop stop-color="#FF928E"/>
<stop offset="1" stop-color="#FE7062"/>
</linearGradient>
<linearGradient id="paint154_linear" x1="1352.67" y1="36373.2" x2="10860.1" y2="33980.1" gradientUnits="userSpaceOnUse">
<stop stop-color="#FF928E"/>
<stop offset="1" stop-color="#FE7062"/>
</linearGradient>
<linearGradient id="paint155_linear" x1="141.956" y1="31.7578" x2="136.052" y2="75.456" gradientUnits="userSpaceOnUse">
<stop stop-color="#E1473D"/>
<stop offset="1" stop-color="#E9605A"/>
</linearGradient>
<linearGradient id="paint156_linear" x1="70737.7" y1="227.792" x2="70736.9" y2="390.469" gradientUnits="userSpaceOnUse">
<stop stop-color="#E1473D"/>
<stop offset="1" stop-color="#E9605A"/>
</linearGradient>
<linearGradient id="paint157_linear" x1="2862.25" y1="-1216.25" x2="385.685" y2="267.6" gradientUnits="userSpaceOnUse">
<stop stop-color="#E1473D"/>
<stop offset="1" stop-color="#E9605A"/>
</linearGradient>
<linearGradient id="paint158_linear" x1="1500.04" y1="-1191.4" x2="-35.7858" y2="-731.34" gradientUnits="userSpaceOnUse">
<stop stop-color="#E1473D"/>
<stop offset="1" stop-color="#E9605A"/>
</linearGradient>
<linearGradient id="paint159_linear" x1="1505.15" y1="-1191.41" x2="-30.827" y2="-731.24" gradientUnits="userSpaceOnUse">
<stop stop-color="#E1473D"/>
<stop offset="1" stop-color="#E9605A"/>
</linearGradient>
<linearGradient id="paint160_linear" x1="1510.32" y1="-1191.4" x2="-25.7117" y2="-731.204" gradientUnits="userSpaceOnUse">
<stop stop-color="#E1473D"/>
<stop offset="1" stop-color="#E9605A"/>
</linearGradient>
<linearGradient id="paint161_linear" x1="1515.25" y1="-1191.4" x2="-20.6142" y2="-731.311" gradientUnits="userSpaceOnUse">
<stop stop-color="#E1473D"/>
<stop offset="1" stop-color="#E9605A"/>
</linearGradient>
<linearGradient id="paint162_linear" x1="1520.88" y1="-1191.4" x2="-15.1462" y2="-731.203" gradientUnits="userSpaceOnUse">
<stop stop-color="#E1473D"/>
<stop offset="1" stop-color="#E9605A"/>
</linearGradient>
<linearGradient id="paint163_linear" x1="1525.99" y1="-1191.4" x2="-10.0363" y2="-731.204" gradientUnits="userSpaceOnUse">
<stop stop-color="#E1473D"/>
<stop offset="1" stop-color="#E9605A"/>
</linearGradient>
<linearGradient id="paint164_linear" x1="1531.75" y1="-1191.4" x2="-4.28293" y2="-731.204" gradientUnits="userSpaceOnUse">
<stop stop-color="#E1473D"/>
<stop offset="1" stop-color="#E9605A"/>
</linearGradient>
<linearGradient id="paint165_linear" x1="1536.74" y1="-1191.4" x2="0.815343" y2="-731.276" gradientUnits="userSpaceOnUse">
<stop stop-color="#E1473D"/>
<stop offset="1" stop-color="#E9605A"/>
</linearGradient>
<linearGradient id="paint166_linear" x1="1541.69" y1="-1191.4" x2="5.87244" y2="-731.347" gradientUnits="userSpaceOnUse">
<stop stop-color="#E1473D"/>
<stop offset="1" stop-color="#E9605A"/>
</linearGradient>
<linearGradient id="paint167_linear" x1="2946.58" y1="-1216.25" x2="469.983" y2="267.646" gradientUnits="userSpaceOnUse">
<stop stop-color="#E1473D"/>
<stop offset="1" stop-color="#E9605A"/>
</linearGradient>
<linearGradient id="paint168_linear" x1="430.391" y1="13075.7" x2="4311.14" y2="11958.4" gradientUnits="userSpaceOnUse">
<stop stop-color="#FF928E"/>
<stop offset="1" stop-color="#FE7062"/>
</linearGradient>
<linearGradient id="paint169_linear" x1="429.417" y1="9084.93" x2="4016.33" y2="7599.35" gradientUnits="userSpaceOnUse">
<stop stop-color="#FF928E"/>
<stop offset="1" stop-color="#FE7062"/>
</linearGradient>
<linearGradient id="paint170_linear" x1="361.525" y1="13692.4" x2="4277.91" y2="12636.3" gradientUnits="userSpaceOnUse">
<stop stop-color="#FF928E"/>
<stop offset="1" stop-color="#FE7062"/>
</linearGradient>
<linearGradient id="paint171_linear" x1="435.049" y1="10265.5" x2="4138.81" y2="8906.56" gradientUnits="userSpaceOnUse">
<stop stop-color="#FF928E"/>
<stop offset="1" stop-color="#FE7062"/>
</linearGradient>
<linearGradient id="paint172_linear" x1="12192.6" y1="23871.1" x2="18375.6" y2="-1253.78" gradientUnits="userSpaceOnUse">
<stop stop-color="#FF928E"/>
<stop offset="1" stop-color="#FE7062"/>
</linearGradient>
<linearGradient id="paint173_linear" x1="80216.5" y1="484.108" x2="78567.6" y2="5667.34" gradientUnits="userSpaceOnUse">
<stop stop-color="#E1473D"/>
<stop offset="1" stop-color="#E9605A"/>
</linearGradient>
<linearGradient id="paint174_linear" x1="124.902" y1="24.3499" x2="139.321" y2="24.8578" gradientUnits="userSpaceOnUse">
<stop stop-color="#FEBBBA"/>
<stop offset="1" stop-color="#FF928E"/>
</linearGradient>
<linearGradient id="paint175_linear" x1="19139.4" y1="13.2227" x2="17624.3" y2="1213.64" gradientUnits="userSpaceOnUse">
<stop stop-color="#FF928E"/>
<stop offset="1" stop-color="#FE7062"/>
</linearGradient>
<linearGradient id="paint176_linear" x1="29142.7" y1="-288.069" x2="27049" y2="1576.48" gradientUnits="userSpaceOnUse">
<stop stop-color="#FF928E"/>
<stop offset="1" stop-color="#FE7062"/>
</linearGradient>
<linearGradient id="paint177_linear" x1="64948.7" y1="1244.47" x2="64941.3" y2="1537.86" gradientUnits="userSpaceOnUse">
<stop stop-color="#E1473D"/>
<stop offset="1" stop-color="#E9605A"/>
</linearGradient>
<linearGradient id="paint178_linear" x1="882.513" y1="3408.6" x2="881.181" y2="3408.6" gradientUnits="userSpaceOnUse">
<stop stop-color="#FF928E"/>
<stop offset="1" stop-color="#FE7062"/>
</linearGradient>
<linearGradient id="paint179_linear" x1="891.466" y1="3428.78" x2="889.986" y2="3428.79" gradientUnits="userSpaceOnUse">
<stop stop-color="#FF928E"/>
<stop offset="1" stop-color="#FE7062"/>
</linearGradient>
<linearGradient id="paint180_linear" x1="-6246.29" y1="2408.18" x2="-5928.7" y2="2782.88" gradientUnits="userSpaceOnUse">
<stop stop-color="#E1473D"/>
<stop offset="1" stop-color="#E9605A"/>
</linearGradient>
<linearGradient id="paint181_linear" x1="104.923" y1="44.5467" x2="101.307" y2="44.5432" gradientUnits="userSpaceOnUse">
<stop stop-color="#09005D"/>
<stop offset="1" stop-color="#1A0F91"/>
</linearGradient>
<linearGradient id="paint182_linear" x1="9574.34" y1="580.393" x2="9495.11" y2="580.393" gradientUnits="userSpaceOnUse">
<stop stop-color="#09005D"/>
<stop offset="1" stop-color="#1A0F91"/>
</linearGradient>
</defs>
</svg>
