<svg width="44" height="44" viewBox="0 0 44 44" fill="none" xmlns="http://www.w3.org/2000/svg">
<rect width="44" height="44" rx="4" fill="white"/>
<rect width="44" height="44" rx="4" fill="#F6F0ED"/>
<g clip-path="url(#clip0_7479_169587)">
<path d="M15.4075 32H28.5708C30.8497 32 31.9782 30.8714 31.9782 28.6359V15.3858C31.9782 13.1503 30.8497 12.0217 28.5708 12.0217H15.4075C13.1394 12.0217 12 13.1395 12 15.3858V28.6359C12 30.8823 13.1394 32 15.4075 32ZM15.4292 30.2529C14.344 30.2529 13.7472 29.6777 13.7472 28.5491V15.4726C13.7472 14.344 14.344 13.7689 15.4292 13.7689H28.5491C29.6234 13.7689 30.2312 14.344 30.2312 15.4726V28.5491C30.2312 29.6777 29.6234 30.2529 28.5491 30.2529H15.4292ZM21.9946 23.9479C22.5155 23.9479 22.8084 23.6549 22.8193 23.0906L22.9821 17.3608C22.9929 16.8074 22.5588 16.395 21.9837 16.395C21.3977 16.395 20.9853 16.7965 20.9962 17.35L21.1373 23.0906C21.1481 23.644 21.452 23.9479 21.9946 23.9479ZM21.9946 27.4748C22.6131 27.4748 23.1557 26.9756 23.1557 26.3462C23.1557 25.7167 22.624 25.2176 21.9946 25.2176C21.3543 25.2176 20.8226 25.7276 20.8226 26.3462C20.8226 26.9648 21.3651 27.4748 21.9946 27.4748Z" fill="#FF3B30"/>
</g>
<defs>
<clipPath id="clip0_7479_169587">
<rect width="19.9782" height="20" fill="white" transform="translate(12 12)"/>
</clipPath>
</defs>
</svg>
