<svg width="17" height="16" viewBox="0 0 17 16" fill="none" xmlns="http://www.w3.org/2000/svg">
<path d="M3.96363 12.708H12.1941C13.2319 12.708 13.77 12.1747 13.77 11.1513V5.29922C13.77 4.27582 13.2319 3.7425 12.1941 3.7425H3.96363C2.92582 3.7425 2.38769 4.27102 2.38769 5.29922V11.1513C2.38769 12.1747 2.92582 12.708 3.96363 12.708ZM3.32941 5.3809C3.32941 4.91484 3.57445 4.67941 4.02129 4.67941H12.1364C12.5784 4.67941 12.8283 4.91484 12.8283 5.3809V10.4595L10.4211 8.20605C10.2049 8.01387 9.95508 7.91297 9.70043 7.91297C9.43617 7.91297 9.20074 8.00426 8.97973 8.19645L6.81281 10.1375L5.92394 9.33516C5.72215 9.15738 5.50113 9.06129 5.27531 9.06129C5.0543 9.06129 4.8573 9.15258 4.65551 9.33035L3.32941 10.5219V5.3809ZM6.11133 8.31176C6.74074 8.31176 7.25965 7.79285 7.25965 7.15863C7.25965 6.52922 6.74074 6.00551 6.11133 6.00551C5.4723 6.00551 4.9582 6.52922 4.9582 7.15863C4.9582 7.79285 5.4723 8.31176 6.11133 8.31176Z" fill="#3B3B3B"/>
</svg>
