<svg width="198" height="198" viewBox="0 0 198 198" fill="none" xmlns="http://www.w3.org/2000/svg">
<g id="settings">
<path id="Path" d="M47.0157 83.9961C52.4695 83.2521 57.9234 85.1534 61.7899 89.0801L71.5579 99L80.7968 89.6587L67.4472 76.1428C65.3715 74.0348 65.3715 70.6042 67.4472 68.4962C69.5229 66.3882 72.901 66.3882 74.9767 68.4962L88.3263 82.0534L97.5652 72.7122L87.7565 62.7509C83.89 58.8242 82.0178 53.2443 82.7504 47.747C84.3784 35.1817 80.4305 22.0378 70.9474 12.3659C61.2608 2.52859 47.9925 -1.43938 35.4162 0.461941C33.4219 0.751272 32.6079 3.27259 34.0324 4.71925L46.6087 17.4912C52.5916 23.5671 52.5916 33.4044 46.6087 39.439L38.8757 47.2923C32.8928 53.3683 23.2062 53.3683 17.264 47.2923L4.64697 34.5204C3.22247 33.0737 0.780467 33.9004 0.454866 35.9257C-1.41734 48.6976 2.48987 62.1722 12.1765 72.0095C21.7003 81.6401 34.6429 85.6494 47.0157 83.9961Z" fill="#EEF4F9"/>
<path id="Path_2" d="M123.904 99L114.548 108.455L170.111 164.852C172.213 166.986 172.213 170.459 170.111 172.592C168.009 174.726 164.588 174.726 162.486 172.592L106.922 116.195L97.5652 125.651L154.819 183.763C162.073 191.126 173.821 191.085 181.076 183.721C188.33 176.358 188.33 164.434 181.117 157.071L123.904 99Z" fill="#EEF4F9"/>
<path id="Path_3" d="M149.121 61.9358H173.561L198 12.3789L185.801 0L136.921 24.7578V49.5569L70.4974 116.751L58.5427 104.662L10.3976 153.515C0.360616 163.699 0.360616 180.177 10.3976 190.362C20.4347 200.546 36.6734 200.546 46.7105 190.362L94.8556 141.508L82.6561 129.13L149.121 61.9358Z" fill="#EEF4F9"/>
</g>
</svg>
