<svg width="220" height="220" viewBox="0 0 220 220" fill="none" xmlns="http://www.w3.org/2000/svg">
<path d="M94.1797 118.123C120.599 118.123 146.04 116.588 170.643 113.183C171.628 113.034 172.613 112.889 173.598 112.744C174.583 112.599 175.568 112.454 176.553 112.306C182.978 111.313 188.372 106.966 188.372 100.465C188.372 94.3254 183.66 89.1661 177.609 88.6244V88.5857C177.609 55.9013 158.85 27.6024 131.581 13.8915L123.959 57.1783C123.406 60.1449 120.56 62.1441 117.612 61.6411C114.651 61.0865 112.655 58.2359 113.157 55.2822L121.667 6.9522C120.393 2.92792 116.595 0 112.14 0H76.2192C71.7645 0 68.0051 2.92792 66.6918 6.9522L75.2021 55.2822C75.7171 58.2488 73.7086 61.0994 70.7474 61.6411C67.7862 62.157 64.9408 60.1449 64.4001 57.1783L60.2801 33.742L56.8168 13.8915C29.5221 27.6024 10.802 55.9013 10.802 88.5857V88.6244C4.7122 89.179 0 94.3254 0 100.465C0 106.979 5.40745 111.325 11.8578 112.306C13.789 112.602 15.7588 112.886 17.7287 113.144C42.3197 116.588 67.7862 118.123 94.1797 118.123Z" fill="#1E90FF" fill-opacity="0.08"/>
<path d="M94.1502 129.091C119.733 129.091 145.354 127.66 170.717 124.229C170.549 129.058 170.098 133.795 169.384 138.414C150.686 143.647 136.969 160.84 136.969 181.241C136.969 186.852 138.007 192.22 139.9 197.163C133.808 202.863 127.02 207.451 119.733 210.699C111.699 214.246 103.124 216.181 94.1502 216.181C85.1765 216.181 76.6018 214.246 68.6065 210.699C55.0235 204.663 43.2044 193.996 34.3722 180.169C24.4843 164.742 18.3173 145.356 17.5834 124.229C42.9469 127.66 68.5679 129.091 94.1502 129.091Z" fill="#1E90FF" fill-opacity="0.08"/>
<path fill-rule="evenodd" clip-rule="evenodd" d="M143.365 181.233C143.365 161.096 159.017 144.621 178.798 143.352V140.984H174.977V133.043H187.873V140.984H184.052V143.363C191.061 143.842 197.697 146.234 203.351 150.295L207.688 145.95L212.955 151.226L208.966 155.222C215.588 162.257 219.216 171.427 219.216 181.139C219.216 188.192 217.301 194.949 213.721 200.818C207.088 211.83 195.03 219.193 181.256 219.193C160.33 219.193 143.365 202.198 143.365 181.233ZM188.656 179.435C188.541 178.886 188.365 178.365 188.137 177.878L197.756 167.073L194.224 163.917L184.8 174.502C183.437 173.842 181.853 173.612 180.257 173.948C176.425 174.755 173.971 178.52 174.777 182.357C175.583 186.194 179.343 188.651 183.176 187.844C187.008 187.037 189.462 183.272 188.656 179.435Z" fill="#1E90FF" fill-opacity="0.08"/>
</svg>
