<svg width="40" height="40" viewBox="0 0 40 40" fill="none" xmlns="http://www.w3.org/2000/svg">
<path d="M28.9209 29.2461H23.5479C23.4111 29.2461 23.2949 29.1982 23.1992 29.1025C23.1035 29.0205 23.0557 28.9111 23.0557 28.7744L24.9629 10.9326C24.9629 10.7959 25.0107 10.6865 25.1064 10.6045C25.2021 10.5088 25.3184 10.4609 25.4551 10.4609H27.7725C27.9092 10.4609 28.0254 10.5088 28.1211 10.6045C28.2168 10.6865 28.2646 10.7959 28.2646 10.9326L29.3926 28.7744C29.3926 28.9111 29.3447 29.0205 29.249 29.1025C29.167 29.1982 29.0576 29.2461 28.9209 29.2461ZM10.7715 19.3408H16.3496V16.5928C16.3496 16.415 16.2744 16.2852 16.124 16.2031C15.9736 16.1074 15.8232 16.1074 15.6729 16.2031L10.7715 19.3408ZM16.4727 19.3408H22.0508V16.5928C22.0508 16.415 21.9756 16.2852 21.8252 16.2031C21.6748 16.1074 21.5244 16.1074 21.374 16.2031L16.4727 19.3408ZM23.5273 19.3203H10.874C10.792 19.3203 10.7236 19.3477 10.6689 19.4023C10.6143 19.4434 10.5869 19.5049 10.5869 19.5869V28.7744C10.5869 28.9111 10.6348 29.0205 10.7305 29.1025C10.8262 29.1982 10.9424 29.2461 11.0791 29.2461H23.5273V19.3203ZM14.2988 26.4365H12.6992V24.0166H14.2988V26.4365ZM14.2988 22.8477H12.6992V20.4482H14.2988V22.8477ZM17.9082 26.4365H16.3086V24.0166H17.9082V26.4365ZM17.9082 22.8477H16.3086V20.4482H17.9082V22.8477ZM21.5996 26.4365H20V24.0166H21.5996V26.4365ZM21.5996 22.8477H20V20.4482H21.5996V22.8477Z" fill="#8561C5"/>
</svg>
