<svg id='icon-emission-alert'  xmlns="http://www.w3.org/2000/svg" width="44" height="44" viewBox="0 0 44 44" fill="none">
<g clip-path="url(#clip0_4546_15411)">
<rect width="44" height="44" rx="4" fill="#FFDBD9"/>
<path d="M9.45679 28.3843C9.6049 28.2023 9.66118 28.0056 9.62563 27.7943C9.59009 27.5771 9.48641 27.3745 9.31461 27.1866C8.79328 26.6054 8.39043 25.9303 8.10607 25.1612C7.82763 24.3863 7.68841 23.5644 7.68841 22.6955C7.68841 21.8267 7.82763 21.0077 8.10607 20.2386C8.38451 19.4637 8.78735 18.7886 9.31461 18.2132C9.49234 18.0254 9.59601 17.8258 9.62563 17.6144C9.66118 17.3972 9.6049 17.1976 9.45679 17.0156C9.29091 16.816 9.07764 16.7132 8.81698 16.7074C8.56223 16.7015 8.32526 16.816 8.10607 17.0508C7.44255 17.7612 6.92418 18.6095 6.55095 19.5958C6.18365 20.5762 6 21.6094 6 22.6955C6 23.7816 6.17773 24.8149 6.53318 25.7953C6.88864 26.7698 7.41293 27.6181 8.10607 28.3403C8.33119 28.5751 8.57112 28.6896 8.82586 28.6837C9.0806 28.6778 9.29091 28.578 9.45679 28.3843ZM12.0338 25.9802C12.1819 25.7982 12.2382 25.6045 12.2027 25.399C12.1731 25.1877 12.0842 24.9822 11.9361 24.7826C11.7347 24.5184 11.5717 24.2014 11.4473 23.8315C11.3289 23.4558 11.2696 23.0771 11.2696 22.6955C11.2696 22.3139 11.3289 21.9353 11.4473 21.5595C11.5717 21.1838 11.7347 20.8639 11.9361 20.5997C12.0783 20.4001 12.1671 20.1975 12.2027 19.9921C12.2382 19.7866 12.1819 19.5928 12.0338 19.4109C11.8739 19.2171 11.6606 19.1202 11.394 19.1202C11.1274 19.1144 10.8934 19.2259 10.692 19.4549C10.3365 19.8658 10.064 20.3531 9.87445 20.9167C9.68488 21.4803 9.59009 22.0732 9.59009 22.6955C9.59009 23.3178 9.68488 23.9108 9.87445 24.4744C10.064 25.038 10.3365 25.5252 10.692 25.9362C10.8934 26.1593 11.1274 26.2708 11.394 26.2708C11.6606 26.2708 11.8739 26.1739 12.0338 25.9802ZM33.7521 28.3843C33.912 28.578 34.1194 28.6778 34.3741 28.6837C34.6348 28.6896 34.8747 28.5751 35.0939 28.3403C35.7871 27.6181 36.3114 26.7698 36.6668 25.7953C37.0223 24.8149 37.2 23.7816 37.2 22.6955C37.2 21.6094 37.0163 20.5762 36.649 19.5958C36.2817 18.6095 35.7634 17.7612 35.0939 17.0508C34.8747 16.816 34.6378 16.7015 34.383 16.7074C34.1283 16.7132 33.918 16.816 33.7521 17.0156C33.5921 17.1976 33.5299 17.3972 33.5655 17.6144C33.601 17.8258 33.7047 18.0254 33.8765 18.2132C34.4097 18.7944 34.8155 19.4696 35.0939 20.2386C35.3783 21.0077 35.5205 21.8267 35.5205 22.6955C35.5205 23.5644 35.3783 24.3863 35.0939 25.1612C34.8096 25.9303 34.4038 26.6054 33.8765 27.1866C33.7106 27.3745 33.6099 27.5771 33.5744 27.7943C33.5388 28.0056 33.5981 28.2023 33.7521 28.3843ZM31.1662 25.9802C31.3261 26.1739 31.5394 26.2708 31.806 26.2708C32.0726 26.2708 32.3066 26.1593 32.508 25.9362C32.8635 25.5252 33.136 25.038 33.3255 24.4744C33.5151 23.9108 33.6099 23.3178 33.6099 22.6955C33.6099 22.0732 33.5151 21.4803 33.3255 20.9167C33.136 20.3531 32.8635 19.8658 32.508 19.4549C32.3066 19.2259 32.0726 19.1144 31.806 19.1202C31.5394 19.1202 31.3261 19.2171 31.1662 19.4109C31.0181 19.5928 30.9618 19.7866 30.9973 19.9921C31.0388 20.1975 31.1277 20.4001 31.2639 20.5997C31.4713 20.8639 31.6342 21.1838 31.7527 21.5595C31.8711 21.9353 31.9304 22.3139 31.9304 22.6955C31.9304 23.0771 31.8711 23.4558 31.7527 23.8315C31.6342 24.2014 31.4713 24.5184 31.2639 24.7826C31.1217 24.9822 31.0329 25.1877 30.9973 25.399C30.9618 25.6045 31.0181 25.7982 31.1662 25.9802ZM21.6044 30.7707C22.73 30.7707 23.7846 30.5594 24.768 30.1367C25.7573 29.7199 26.6252 29.1387 27.3717 28.3931C28.1241 27.6475 28.7106 26.7874 29.1312 25.8129C29.5577 24.8384 29.771 23.7904 29.771 22.6691C29.771 21.5537 29.5577 20.5057 29.1312 19.5253C28.7106 18.5449 28.1241 17.6849 27.3717 16.9451C26.6252 16.1996 25.7573 15.6184 24.768 15.2015C23.7846 14.7847 22.73 14.5763 21.6044 14.5763C20.4729 14.5763 19.4125 14.7847 18.4231 15.2015C17.4397 15.6184 16.5718 16.1996 15.8194 16.9451C15.073 17.6849 14.4865 18.5449 14.0599 19.5253C13.6393 20.5057 13.429 21.5537 13.429 22.6691C13.429 23.7904 13.6393 24.8384 14.0599 25.8129C14.4865 26.7874 15.073 27.6475 15.8194 28.3931C16.5718 29.1387 17.4397 29.7199 18.4231 30.1367C19.4125 30.5594 20.4729 30.7707 21.6044 30.7707ZM21.6044 28.7982C20.7514 28.7982 19.9486 28.6397 19.1962 28.3226C18.4498 28.0056 17.7922 27.5682 17.2235 27.0105C16.6607 26.4469 16.2193 25.7953 15.8994 25.0556C15.5795 24.31 15.4195 23.5145 15.4195 22.6691C15.4195 21.8237 15.5795 21.0312 15.8994 20.2915C16.2193 19.5517 16.6607 18.903 17.2235 18.3453C17.7922 17.7817 18.4498 17.3414 19.1962 17.0244C19.9486 16.7074 20.7514 16.5489 21.6044 16.5489C22.4575 16.5489 23.2543 16.7074 23.9949 17.0244C24.7413 17.3414 25.3989 17.7817 25.9676 18.3453C26.5364 18.903 26.9807 19.5517 27.3006 20.2915C27.6205 21.0312 27.7805 21.8237 27.7805 22.6691C27.7805 23.5145 27.6205 24.31 27.3006 25.0556C26.9807 25.7953 26.5364 26.4469 25.9676 27.0105C25.3989 27.5682 24.7413 28.0056 23.9949 28.3226C23.2543 28.6397 22.4575 28.7982 21.6044 28.7982ZM14.4332 16.7338C14.4983 16.7338 14.5576 16.725 14.6109 16.7074C14.6642 16.6839 14.7234 16.6487 14.7886 16.6017L17.9433 14.3826C18.0914 14.2769 18.1654 14.1448 18.1654 13.9863C18.1654 13.7984 18.0795 13.634 17.9077 13.4931C17.7063 13.3346 17.4664 13.2143 17.1879 13.1321C16.9095 13.044 16.6251 13 16.3348 13C15.8609 13 15.4284 13.1115 15.0374 13.3346C14.6523 13.5518 14.3443 13.8454 14.1132 14.2152C13.8822 14.5851 13.7667 14.999 13.7667 15.4569C13.7667 15.6389 13.7815 15.8092 13.8111 15.9677C13.8407 16.1262 13.8792 16.2612 13.9266 16.3727C13.974 16.4784 14.0422 16.5665 14.131 16.6369C14.2199 16.7015 14.3206 16.7338 14.4332 16.7338ZM28.7757 16.7338C28.8824 16.7338 28.9801 16.7015 29.069 16.6369C29.1578 16.5665 29.2289 16.4784 29.2823 16.3727C29.3296 16.2612 29.3652 16.1262 29.3889 15.9677C29.4185 15.8092 29.4333 15.6389 29.4333 15.4569C29.4333 14.999 29.3178 14.5851 29.0868 14.2152C28.8616 13.8454 28.5536 13.5518 28.1626 13.3346C27.7716 13.1115 27.3421 13 26.8741 13C26.5778 13 26.2905 13.044 26.0121 13.1321C25.7396 13.2143 25.4996 13.3346 25.2923 13.4931C25.1205 13.634 25.0346 13.7984 25.0346 13.9863C25.0346 14.1448 25.1086 14.2769 25.2567 14.3826L28.4203 16.6017C28.4854 16.6487 28.5417 16.6839 28.5891 16.7074C28.6424 16.725 28.7046 16.7338 28.7757 16.7338ZM14.4065 30.7619C14.5724 30.9263 14.7708 31.0056 15.0019 30.9997C15.2329 30.9938 15.4314 30.9058 15.5973 30.7355L17.3657 29.0007L16.1927 27.8471L14.4065 29.6259C14.2465 29.7845 14.1666 29.9723 14.1666 30.1895C14.1666 30.4126 14.2465 30.6034 14.4065 30.7619ZM28.8024 30.7619C28.9623 30.6034 29.0423 30.4126 29.0423 30.1895C29.0423 29.9723 28.9594 29.7845 28.7935 29.6259L27.0073 27.8471L25.8432 29.0007L27.6027 30.7355C27.7745 30.8999 27.973 30.985 28.1981 30.9909C28.4292 31.0026 28.6306 30.9263 28.8024 30.7619ZM18.1565 23.8315H21.5956C21.8088 23.8315 21.9866 23.7611 22.1287 23.6202C22.2709 23.4793 22.342 23.3061 22.342 23.1006V18.5038C22.342 18.2983 22.2709 18.1252 22.1287 17.9843C21.9866 17.8434 21.8088 17.7729 21.5956 17.7729C21.3882 17.7729 21.2134 17.8434 21.0713 17.9843C20.9291 18.1252 20.858 18.2983 20.858 18.5038V22.3697H18.1565C17.9492 22.3697 17.7744 22.4431 17.6322 22.5899C17.4901 22.7308 17.419 22.901 17.419 23.1006C17.419 23.3061 17.4901 23.4793 17.6322 23.6202C17.7744 23.7611 17.9492 23.8315 18.1565 23.8315Z" fill="#DC0D0E"/>
</g>
<defs>
<clipPath id="clip0_4546_15411">
<rect width="44" height="44" fill="white"/>
</clipPath>
</defs>
</svg>
