<svg width="40" height="41" viewBox="0 0 40 41" fill="none" xmlns="http://www.w3.org/2000/svg">
<path d="M29.0608 21.599L27.3662 21.2306C27.2516 20.8049 27.1043 20.3956 26.9242 20.0026C26.7604 19.6097 26.5558 19.2413 26.3102 18.8974L27.3171 17.5958C27.4481 17.4484 27.5136 17.2847 27.5136 17.1046C27.5136 16.9081 27.4481 16.7362 27.3171 16.5889L26.3102 15.5574C26.1792 15.41 26.0155 15.3363 25.819 15.3363C25.6225 15.3363 25.4588 15.4018 25.3278 15.5328L25.0822 15.6802C24.9021 16.2205 24.6811 16.7935 24.4191 17.3993C24.1735 18.0051 23.9115 18.6191 23.6332 19.2413C24.1571 19.7325 24.5583 20.3219 24.8366 21.0096C25.1313 21.6808 25.2787 22.4013 25.2787 23.1708C25.2623 23.8912 25.1068 24.5789 24.8121 25.2338C24.5337 25.8723 24.149 26.429 23.6578 26.9038C23.1666 27.3786 22.5935 27.747 21.9386 28.009C21.3001 28.2873 20.6124 28.4183 19.8756 28.4019C19.1388 28.3856 18.4512 28.2382 17.8126 27.9599C17.1741 27.6652 16.6174 27.2722 16.1426 26.781C15.6678 26.2898 15.2912 25.725 15.0129 25.0864C14.7509 24.4315 14.6199 23.7357 14.6199 22.9989C14.6363 22.2948 14.7754 21.6317 15.0374 21.0096C15.3158 20.371 15.6923 19.8143 16.1671 19.3395C15.9052 18.7501 15.6514 18.1689 15.4058 17.5958C15.1602 17.0227 14.9392 16.4661 14.7427 15.9258L14.3743 15.6556C14.2433 15.5082 14.0796 15.4346 13.8831 15.4346C13.6866 15.4346 13.5147 15.5001 13.3674 15.631L12.3359 16.638C12.1885 16.769 12.1148 16.9327 12.1148 17.1292C12.1148 17.3256 12.1803 17.4976 12.3113 17.6449L13.3674 19.2413C13.1709 19.5851 12.999 19.9453 12.8516 20.3219C12.7043 20.6821 12.5815 21.0669 12.4832 21.4762L10.715 21.7218C10.5348 21.7054 10.3711 21.7709 10.2238 21.9183C10.0928 22.0492 10.0191 22.213 10.0027 22.4094V23.8585C9.98636 24.0549 10.0437 24.2268 10.1746 24.3742C10.322 24.5052 10.4939 24.5707 10.6904 24.5707L12.5569 24.9636C12.6551 25.3729 12.7861 25.7659 12.9499 26.1425C13.1136 26.5027 13.3019 26.8465 13.5147 27.174L12.4341 28.5984C12.3031 28.7294 12.2376 28.8931 12.2376 29.0896C12.2376 29.2861 12.3031 29.4498 12.4341 29.5808L13.441 30.6369C13.572 30.7678 13.7358 30.8333 13.9322 30.8333C14.1287 30.8333 14.2924 30.7678 14.4234 30.6369L15.9952 29.6299C16.3554 29.8428 16.7238 30.0229 17.1004 30.1702C17.477 30.3176 17.8699 30.4404 18.2793 30.5386L18.5003 32.2332C18.5003 32.4297 18.5658 32.5934 18.6968 32.7244C18.8441 32.8718 19.016 32.9454 19.2125 32.9454L20.6615 32.97C20.8416 32.97 20.9972 32.9045 21.1281 32.7735C21.2755 32.6425 21.3574 32.4788 21.3737 32.2823L21.7421 30.5141C22.1678 30.4158 22.569 30.2848 22.9455 30.1211C23.3385 29.9574 23.7151 29.7609 24.0753 29.5317L25.3769 30.5386C25.5079 30.6696 25.6716 30.7351 25.8681 30.7351C26.0646 30.7351 26.2365 30.6696 26.3839 30.5386L27.4154 29.5317C27.5627 29.4007 27.6364 29.237 27.6364 29.0405C27.6364 28.844 27.5709 28.6803 27.4399 28.5493L26.4821 27.0757C26.695 26.7155 26.8832 26.339 27.047 25.946C27.2107 25.5367 27.3335 25.111 27.4154 24.6689L29.0363 24.4724C29.2164 24.4724 29.3719 24.4069 29.5029 24.276C29.6503 24.1286 29.7321 23.9567 29.7485 23.7602L29.7731 22.3112C29.7731 22.1147 29.6994 21.951 29.552 21.82C29.421 21.6727 29.2573 21.599 29.0608 21.599ZM19.8756 9C18.5822 9 17.477 9.45844 16.5601 10.3753C15.6432 11.2758 15.1848 12.3728 15.1848 13.6663C15.1848 14.3048 15.4304 15.2381 15.9216 16.4661C16.4127 17.7104 16.953 18.9466 17.5425 20.1745C18.1319 21.4025 18.6722 22.4668 19.1634 23.3673C19.6546 24.2841 19.9002 24.7426 19.9002 24.7426C19.9002 24.7426 20.1458 24.2841 20.637 23.3673C21.1118 22.4668 21.6357 21.4025 22.2088 20.1745C22.7982 18.9466 23.3385 17.7104 23.8297 16.4661C24.3209 15.2381 24.5665 14.3048 24.5665 13.6663C24.5665 12.3728 24.108 11.2758 23.1911 10.3753C22.2743 9.45844 21.1691 9 19.8756 9ZM19.8265 15.2135C19.3353 15.2135 18.9178 15.0416 18.574 14.6978C18.2301 14.354 18.0582 13.9364 18.0582 13.4453C18.0582 12.9704 18.2301 12.5611 18.574 12.2173C18.9178 11.8571 19.3353 11.677 19.8265 11.677C20.3013 11.677 20.7106 11.8571 21.0545 12.2173C21.4147 12.5611 21.5948 12.9704 21.5948 13.4453C21.5948 13.9364 21.4147 14.354 21.0545 14.6978C20.7106 15.0416 20.3013 15.2135 19.8265 15.2135Z" fill="#E55169"/>
</svg>
