<svg width="21" height="13" viewBox="0 0 21 13" fill="none" xmlns="http://www.w3.org/2000/svg">
<path d="M1 10C0.716667 10 0.479167 9.90417 0.2875 9.7125C0.0958333 9.52083 0 9.28333 0 9V1C0 0.716667 0.0958333 0.479167 0.2875 0.2875C0.479167 0.0958333 0.716667 0 1 0H17C17.2833 0 17.5208 0.0958333 17.7125 0.2875C17.9042 0.479167 18 0.716667 18 1V2C18 2.28333 17.9042 2.52083 17.7125 2.7125C17.5208 2.90417 17.2833 3 17 3C16.7167 3 16.4792 2.90417 16.2875 2.7125C16.0958 2.52083 16 2.28333 16 2H2V8H10C10.2833 8 10.5208 8.09583 10.7125 8.2875C10.9042 8.47917 11 8.71667 11 9C11 9.28333 10.9042 9.52083 10.7125 9.7125C10.5208 9.90417 10.2833 10 10 10H1ZM16 10H14C13.7167 10 13.4792 9.90417 13.2875 9.7125C13.0958 9.52083 13 9.28333 13 9C13 8.71667 13.0958 8.47917 13.2875 8.2875C13.4792 8.09583 13.7167 8 14 8H16V6C16 5.71667 16.0958 5.47917 16.2875 5.2875C16.4792 5.09583 16.7167 5 17 5C17.2833 5 17.5208 5.09583 17.7125 5.2875C17.9042 5.47917 18 5.71667 18 6V8H20C20.2833 8 20.5208 8.09583 20.7125 8.2875C20.9042 8.47917 21 8.71667 21 9C21 9.28333 20.9042 9.52083 20.7125 9.7125C20.5208 9.90417 20.2833 10 20 10H18V12C18 12.2833 17.9042 12.5208 17.7125 12.7125C17.5208 12.9042 17.2833 13 17 13C16.7167 13 16.4792 12.9042 16.2875 12.7125C16.0958 12.5208 16 12.2833 16 12V10Z" fill="#9E9E9E"/>
</svg>
